<svg xmlns="http://www.w3.org/2000/svg" width="1200" height="1664" viewBox="0 0 1200 1664">
<rect width="100%" height="100%" fill="#f7f7f2"/>
<text x="60" y="54" font-family="Helvetica, Arial, sans-serif" font-size="28" font-weight="700" fill="#202126">ExplainRx crawl growth</text>
<text x="60" y="78" font-family="Helvetica, Arial, sans-serif" font-size="15" fill="#70757a">Source: local DB explainrx_dev</text>
<text x="60" y="100" font-family="Helvetica, Arial, sans-serif" font-size="15" fill="#70757a">Daily relationship count and daily positive relationship gain, starting 2026-06-24 because earlier days used older ingestion rules</text>
<rect x="88" y="118" width="1070" height="214" fill="#ffffff" rx="10"/>
<rect x="88" y="424" width="1070" height="228" fill="#ffffff" rx="10"/>
<rect x="88" y="744" width="1070" height="214" fill="#ffffff" rx="10"/>
<rect x="88" y="1050" width="1070" height="214" fill="#ffffff" rx="10"/>
<rect x="88" y="1356" width="1070" height="214" fill="#ffffff" rx="10"/>
<text x="88" y="100" font-family="Helvetica, Arial, sans-serif" font-size="18" font-weight="700" fill="#202126">Edges in KB (relationships, end-of-day total)</text>
<text x="88" y="406" font-family="Helvetica, Arial, sans-serif" font-size="18" font-weight="700" fill="#202126">Daily positive relationship gain</text>
<text x="88" y="726" font-family="Helvetica, Arial, sans-serif" font-size="18" font-weight="700" fill="#202126">End-of-day pending queue</text>
<text x="88" y="1032" font-family="Helvetica, Arial, sans-serif" font-size="18" font-weight="700" fill="#202126">Entities fully crawled (all pages)</text>
<text x="88" y="1338" font-family="Helvetica, Arial, sans-serif" font-size="18" font-weight="700" fill="#202126">Entities in KB (total)</text>
<line x1="88" y1="360.4" x2="1158" y2="360.4" stroke="#d8ddd2" stroke-width="1"/>
<text x="76" y="365.4" text-anchor="end" font-family="Helvetica, Arial, sans-serif" font-size="12" fill="#70757a">10.0M</text>
<line x1="88" y1="275.9" x2="1158" y2="275.9" stroke="#d8ddd2" stroke-width="1"/>
<text x="76" y="280.9" text-anchor="end" font-family="Helvetica, Arial, sans-serif" font-size="12" fill="#70757a">12.0M</text>
<line x1="88" y1="191.4" x2="1158" y2="191.4" stroke="#d8ddd2" stroke-width="1"/>
<text x="76" y="196.4" text-anchor="end" font-family="Helvetica, Arial, sans-serif" font-size="12" fill="#70757a">14.0M</text>
<line x1="88" y1="107.0" x2="1158" y2="107.0" stroke="#d8ddd2" stroke-width="1"/>
<text x="76" y="112.0" text-anchor="end" font-family="Helvetica, Arial, sans-serif" font-size="12" fill="#70757a">16.0M</text>
<line x1="88" y1="652.0" x2="1158" y2="652.0" stroke="#d8ddd2" stroke-width="1"/>
<text x="76" y="657.0" text-anchor="end" font-family="Helvetica, Arial, sans-serif" font-size="12" fill="#70757a">0</text>
<line x1="88" y1="513.3" x2="1158" y2="513.3" stroke="#d8ddd2" stroke-width="1"/>
<text x="76" y="518.3" text-anchor="end" font-family="Helvetica, Arial, sans-serif" font-size="12" fill="#70757a">500.0k</text>
<line x1="88" y1="374.7" x2="1158" y2="374.7" stroke="#d8ddd2" stroke-width="1"/>
<text x="76" y="379.7" text-anchor="end" font-family="Helvetica, Arial, sans-serif" font-size="12" fill="#70757a">1.0M</text>
<line x1="88" y1="965.5" x2="1158" y2="965.5" stroke="#d8ddd2" stroke-width="1"/>
<text x="76" y="970.5" text-anchor="end" font-family="Helvetica, Arial, sans-serif" font-size="12" fill="#70757a">0</text>
<line x1="88" y1="909.8" x2="1158" y2="909.8" stroke="#d8ddd2" stroke-width="1"/>
<text x="76" y="914.8" text-anchor="end" font-family="Helvetica, Arial, sans-serif" font-size="12" fill="#70757a">100.0k</text>
<line x1="88" y1="854.1" x2="1158" y2="854.1" stroke="#d8ddd2" stroke-width="1"/>
<text x="76" y="859.1" text-anchor="end" font-family="Helvetica, Arial, sans-serif" font-size="12" fill="#70757a">200.0k</text>
<line x1="88" y1="798.4" x2="1158" y2="798.4" stroke="#d8ddd2" stroke-width="1"/>
<text x="76" y="803.4" text-anchor="end" font-family="Helvetica, Arial, sans-serif" font-size="12" fill="#70757a">300.0k</text>
<line x1="88" y1="742.6" x2="1158" y2="742.6" stroke="#d8ddd2" stroke-width="1"/>
<text x="76" y="747.6" text-anchor="end" font-family="Helvetica, Arial, sans-serif" font-size="12" fill="#70757a">400.0k</text>
<line x1="88" y1="1306.1" x2="1158" y2="1306.1" stroke="#d8ddd2" stroke-width="1"/>
<text x="76" y="1311.1" text-anchor="end" font-family="Helvetica, Arial, sans-serif" font-size="12" fill="#70757a">100</text>
<line x1="88" y1="1259.3" x2="1158" y2="1259.3" stroke="#d8ddd2" stroke-width="1"/>
<text x="76" y="1264.3" text-anchor="end" font-family="Helvetica, Arial, sans-serif" font-size="12" fill="#70757a">150</text>
<line x1="88" y1="1212.6" x2="1158" y2="1212.6" stroke="#d8ddd2" stroke-width="1"/>
<text x="76" y="1217.6" text-anchor="end" font-family="Helvetica, Arial, sans-serif" font-size="12" fill="#70757a">200</text>
<line x1="88" y1="1165.9" x2="1158" y2="1165.9" stroke="#d8ddd2" stroke-width="1"/>
<text x="76" y="1170.9" text-anchor="end" font-family="Helvetica, Arial, sans-serif" font-size="12" fill="#70757a">250</text>
<line x1="88" y1="1119.2" x2="1158" y2="1119.2" stroke="#d8ddd2" stroke-width="1"/>
<text x="76" y="1124.2" text-anchor="end" font-family="Helvetica, Arial, sans-serif" font-size="12" fill="#70757a">300</text>
<line x1="88" y1="1072.4" x2="1158" y2="1072.4" stroke="#d8ddd2" stroke-width="1"/>
<text x="76" y="1077.4" text-anchor="end" font-family="Helvetica, Arial, sans-serif" font-size="12" fill="#70757a">350</text>
<line x1="88" y1="1025.7" x2="1158" y2="1025.7" stroke="#d8ddd2" stroke-width="1"/>
<text x="76" y="1030.7" text-anchor="end" font-family="Helvetica, Arial, sans-serif" font-size="12" fill="#70757a">400</text>
<line x1="88" y1="1645.5" x2="1158" y2="1645.5" stroke="#d8ddd2" stroke-width="1"/>
<text x="76" y="1650.5" text-anchor="end" font-family="Helvetica, Arial, sans-serif" font-size="12" fill="#70757a">700.0k</text>
<line x1="88" y1="1568.6" x2="1158" y2="1568.6" stroke="#d8ddd2" stroke-width="1"/>
<text x="76" y="1573.6" text-anchor="end" font-family="Helvetica, Arial, sans-serif" font-size="12" fill="#70757a">750.0k</text>
<line x1="88" y1="1491.8" x2="1158" y2="1491.8" stroke="#d8ddd2" stroke-width="1"/>
<text x="76" y="1496.8" text-anchor="end" font-family="Helvetica, Arial, sans-serif" font-size="12" fill="#70757a">800.0k</text>
<line x1="88" y1="1414.9" x2="1158" y2="1414.9" stroke="#d8ddd2" stroke-width="1"/>
<text x="76" y="1419.9" text-anchor="end" font-family="Helvetica, Arial, sans-serif" font-size="12" fill="#70757a">850.0k</text>
<line x1="88" y1="1338.1" x2="1158" y2="1338.1" stroke="#d8ddd2" stroke-width="1"/>
<text x="76" y="1343.1" text-anchor="end" font-family="Helvetica, Arial, sans-serif" font-size="12" fill="#70757a">900.0k</text>
<path d="M 88.0 138.4 L 302.0 143.2 L 516.0 119.5 L 730.0 118.0 L 944.0 332.0 L 1158.0 303.6" fill="none" stroke="#1f4e79" stroke-width="4" stroke-linecap="round" stroke-linejoin="round"/>
<circle cx="88.0" cy="138.4" r="5" fill="#1f4e79"/>
<circle cx="302.0" cy="143.2" r="5" fill="#1f4e79"/>
<circle cx="516.0" cy="119.5" r="5" fill="#1f4e79"/>
<circle cx="730.0" cy="118.0" r="5" fill="#1f4e79"/>
<circle cx="944.0" cy="332.0" r="5" fill="#1f4e79"/>
<circle cx="1158.0" cy="303.6" r="7" fill="#1f4e79"/>
<text x="1168.0" y="293.6" font-family="Helvetica, Arial, sans-serif" font-size="13" font-weight="700" fill="#1f4e79">11,344,422</text>
<rect x="71.0" y="556.7" width="34" height="95.3" rx="4" fill="#2a9d8f"/>
<circle cx="88.0" cy="546.7" r="5" fill="#b3472c"/>
<rect x="285.0" y="548.5" width="34" height="103.5" rx="4" fill="#2a9d8f"/>
<circle cx="302.0" cy="538.5" r="5" fill="#b3472c"/>
<rect x="499.0" y="640.1" width="34" height="11.9" rx="4" fill="#2a9d8f"/>
<circle cx="516.0" cy="630.1" r="5" fill="#b3472c"/>
<rect x="713.0" y="642.9" width="34" height="9.1" rx="4" fill="#2a9d8f"/>
<circle cx="730.0" cy="632.9" r="5" fill="#b3472c"/>
<rect x="927.0" y="533.7" width="34" height="118.3" rx="4" fill="#2a9d8f"/>
<circle cx="944.0" cy="523.7" r="5" fill="#b3472c"/>
<rect x="1141.0" y="424.0" width="34" height="228.0" rx="4" fill="#2a9d8f"/>
<circle cx="1158.0" cy="436.0" r="5" fill="#b3472c"/>
<path d="M 88.0 958.0 L 302.0 949.9 L 516.0 948.0 L 730.0 944.1 L 944.0 801.7 L 1158.0 744.0" fill="none" stroke="#6f5499" stroke-width="4" stroke-linecap="round" stroke-linejoin="round"/>
<circle cx="88.0" cy="958.0" r="5" fill="#6f5499"/>
<circle cx="302.0" cy="949.9" r="5" fill="#6f5499"/>
<circle cx="516.0" cy="948.0" r="5" fill="#6f5499"/>
<circle cx="730.0" cy="944.1" r="5" fill="#6f5499"/>
<circle cx="944.0" cy="801.7" r="5" fill="#6f5499"/>
<circle cx="1158.0" cy="744.0" r="7" fill="#6f5499"/>
<text x="1168.0" y="734.0" font-family="Helvetica, Arial, sans-serif" font-size="13" font-weight="700" fill="#6f5499">397,542</text>
<path d="M 88.0 1264.0 L 302.0 1262.1 L 516.0 1262.1 L 730.0 1262.1 L 944.0 1133.2 L 1158.0 1050.0" fill="none" stroke="#a6611a" stroke-width="4" stroke-linecap="round" stroke-linejoin="round"/>
<circle cx="88.0" cy="1264.0" r="5" fill="#a6611a"/>
<circle cx="302.0" cy="1262.1" r="5" fill="#a6611a"/>
<circle cx="516.0" cy="1262.1" r="5" fill="#a6611a"/>
<circle cx="730.0" cy="1262.1" r="5" fill="#a6611a"/>
<circle cx="944.0" cy="1133.2" r="5" fill="#a6611a"/>
<circle cx="1158.0" cy="1050.0" r="7" fill="#a6611a"/>
<text x="1168.0" y="1040.0" font-family="Helvetica, Arial, sans-serif" font-size="13" font-weight="700" fill="#a6611a">374</text>
<path d="M 730.0 1570.0 L 944.0 1437.5 L 1158.0 1356.0" fill="none" stroke="#2f6b3c" stroke-width="4" stroke-linecap="round" stroke-linejoin="round"/>
<circle cx="730.0" cy="1570.0" r="5" fill="#2f6b3c"/>
<circle cx="944.0" cy="1437.5" r="5" fill="#2f6b3c"/>
<circle cx="1158.0" cy="1356.0" r="7" fill="#2f6b3c"/>
<text x="1168.0" y="1346.0" font-family="Helvetica, Arial, sans-serif" font-size="13" font-weight="700" fill="#2f6b3c">888,339</text>
<text x="88.0" y="1594" text-anchor="middle" font-family="Helvetica, Arial, sans-serif" font-size="12" fill="#70757a">06-24</text>
<text x="302.0" y="1594" text-anchor="middle" font-family="Helvetica, Arial, sans-serif" font-size="12" fill="#70757a">06-25</text>
<text x="516.0" y="1594" text-anchor="middle" font-family="Helvetica, Arial, sans-serif" font-size="12" fill="#70757a">06-29</text>
<text x="730.0" y="1594" text-anchor="middle" font-family="Helvetica, Arial, sans-serif" font-size="12" fill="#70757a">06-30</text>
<text x="944.0" y="1594" text-anchor="middle" font-family="Helvetica, Arial, sans-serif" font-size="12" fill="#70757a">07-02</text>
<text x="1158.0" y="1594" text-anchor="middle" font-family="Helvetica, Arial, sans-serif" font-size="12" fill="#70757a">07-03</text>
<rect x="864" y="188" width="276" height="150" rx="12" fill="#ffffff" stroke="#d8ddd2"/>
<text x="882" y="216" font-family="Helvetica, Arial, sans-serif" font-size="15" font-weight="700" fill="#202126">Latest day: 2026-07-03</text>
<text x="882" y="242" font-family="Helvetica, Arial, sans-serif" font-size="14" fill="#202126">Entities in KB: 888,339</text>
<text x="882" y="264" font-family="Helvetica, Arial, sans-serif" font-size="14" fill="#202126">Edges in KB: 11,344,422</text>
<text x="882" y="286" font-family="Helvetica, Arial, sans-serif" font-size="14" fill="#202126">Positive gain: 822,177</text>
<text x="882" y="308" font-family="Helvetica, Arial, sans-serif" font-size="14" fill="#202126">Fully crawled: 374</text>
<line x1="60" y1="1612" x2="84" y2="1612" stroke="#1f4e79" stroke-width="4"/>
<text x="94" y="1617" font-family="Helvetica, Arial, sans-serif" font-size="13" fill="#202126">Edges in KB</text>
<line x1="280" y1="1612" x2="304" y2="1612" stroke="#6f5499" stroke-width="4"/>
<text x="314" y="1617" font-family="Helvetica, Arial, sans-serif" font-size="13" fill="#202126">Pending queue</text>
<line x1="520" y1="1612" x2="544" y2="1612" stroke="#a6611a" stroke-width="4"/>
<text x="554" y="1617" font-family="Helvetica, Arial, sans-serif" font-size="13" fill="#202126">Fully crawled entities</text>
<line x1="800" y1="1612" x2="824" y2="1612" stroke="#2f6b3c" stroke-width="4"/>
<text x="834" y="1617" font-family="Helvetica, Arial, sans-serif" font-size="13" fill="#202126">Entities in KB (total)</text>
<rect x="60" y="1629" width="20" height="20" rx="4" fill="#2a9d8f"/>
<text x="90" y="1645" font-family="Helvetica, Arial, sans-serif" font-size="13" fill="#202126">Daily positive relationship gain</text>
<circle cx="400" cy="1639" r="5" fill="#b3472c"/>
<text x="414" y="1645" font-family="Helvetica, Arial, sans-serif" font-size="13" fill="#202126">Day includes edge-count drops/resets</text>
</svg>
