<svg xmlns="http://www.w3.org/2000/svg" width="1200" height="1756" viewBox="0 0 1200 1756">
<rect width="100%" height="100%" fill="#f7f7f2"/>
<text x="60" y="54" font-family="Helvetica, Arial, sans-serif" font-size="28" font-weight="700" fill="#202126">ExplainRx crawl growth</text>
<text x="60" y="78" font-family="Helvetica, Arial, sans-serif" font-size="15" fill="#70757a">Source: local DB explainrx_dev</text>
<text x="60" y="100" font-family="Helvetica, Arial, sans-serif" font-size="15" fill="#70757a">Daily relationship count and daily positive relationship gain, starting 2026-06-24 because earlier days used older ingestion rules</text>
<rect x="88" y="118" width="1070" height="56" fill="#ffffff" rx="10"/>
<rect x="88" y="208" width="1070" height="214" fill="#ffffff" rx="10"/>
<rect x="88" y="514" width="1070" height="228" fill="#ffffff" rx="10"/>
<rect x="88" y="834" width="1070" height="214" fill="#ffffff" rx="10"/>
<rect x="88" y="1140" width="1070" height="214" fill="#ffffff" rx="10"/>
<rect x="88" y="1446" width="1070" height="214" fill="#ffffff" rx="10"/>
<text x="88" y="190" font-family="Helvetica, Arial, sans-serif" font-size="18" font-weight="700" fill="#202126">Edges in KB (relationships, end-of-day total)</text>
<text x="88" y="496" font-family="Helvetica, Arial, sans-serif" font-size="18" font-weight="700" fill="#202126">Daily positive relationship gain</text>
<text x="88" y="816" font-family="Helvetica, Arial, sans-serif" font-size="18" font-weight="700" fill="#202126">End-of-day pending queue</text>
<text x="88" y="1122" font-family="Helvetica, Arial, sans-serif" font-size="18" font-weight="700" fill="#202126">Entities fully crawled (all pages)</text>
<text x="88" y="1428" font-family="Helvetica, Arial, sans-serif" font-size="18" font-weight="700" fill="#202126">Entities in KB (total)</text>
<text x="106.0" y="140" font-family="Helvetica, Arial, sans-serif" font-size="12" font-weight="700" fill="#70757a">Latest day</text>
<text x="106.0" y="163" font-family="Helvetica, Arial, sans-serif" font-size="18" font-weight="700" fill="#202126">2026-07-10</text>
<line x1="302.0" y1="128" x2="302.0" y2="164" stroke="#d8ddd2" stroke-width="1"/>
<text x="320.0" y="140" font-family="Helvetica, Arial, sans-serif" font-size="12" font-weight="700" fill="#70757a">Entities in KB</text>
<text x="320.0" y="163" font-family="Helvetica, Arial, sans-serif" font-size="18" font-weight="700" fill="#202126">763,286</text>
<line x1="516.0" y1="128" x2="516.0" y2="164" stroke="#d8ddd2" stroke-width="1"/>
<text x="534.0" y="140" font-family="Helvetica, Arial, sans-serif" font-size="12" font-weight="700" fill="#70757a">Edges in KB</text>
<text x="534.0" y="163" font-family="Helvetica, Arial, sans-serif" font-size="18" font-weight="700" fill="#202126">15,786,051</text>
<line x1="730.0" y1="128" x2="730.0" y2="164" stroke="#d8ddd2" stroke-width="1"/>
<text x="748.0" y="140" font-family="Helvetica, Arial, sans-serif" font-size="12" font-weight="700" fill="#70757a">Positive gain</text>
<text x="748.0" y="163" font-family="Helvetica, Arial, sans-serif" font-size="18" font-weight="700" fill="#202126">29,265</text>
<line x1="944.0" y1="128" x2="944.0" y2="164" stroke="#d8ddd2" stroke-width="1"/>
<text x="962.0" y="140" font-family="Helvetica, Arial, sans-serif" font-size="12" font-weight="700" fill="#70757a">Fully crawled</text>
<text x="962.0" y="163" font-family="Helvetica, Arial, sans-serif" font-size="18" font-weight="700" fill="#202126">19</text>
<line x1="88" y1="456.5" x2="1158" y2="456.5" stroke="#d8ddd2" stroke-width="1"/>
<text x="76" y="461.5" text-anchor="end" font-family="Helvetica, Arial, sans-serif" font-size="12" fill="#70757a">15.0M</text>
<line x1="88" y1="408.4" x2="1158" y2="408.4" stroke="#d8ddd2" stroke-width="1"/>
<text x="76" y="413.4" text-anchor="end" font-family="Helvetica, Arial, sans-serif" font-size="12" fill="#70757a">15.2M</text>
<line x1="88" y1="360.3" x2="1158" y2="360.3" stroke="#d8ddd2" stroke-width="1"/>
<text x="76" y="365.3" text-anchor="end" font-family="Helvetica, Arial, sans-serif" font-size="12" fill="#70757a">15.4M</text>
<line x1="88" y1="312.3" x2="1158" y2="312.3" stroke="#d8ddd2" stroke-width="1"/>
<text x="76" y="317.3" text-anchor="end" font-family="Helvetica, Arial, sans-serif" font-size="12" fill="#70757a">15.6M</text>
<line x1="88" y1="264.2" x2="1158" y2="264.2" stroke="#d8ddd2" stroke-width="1"/>
<text x="76" y="269.2" text-anchor="end" font-family="Helvetica, Arial, sans-serif" font-size="12" fill="#70757a">15.8M</text>
<line x1="88" y1="216.1" x2="1158" y2="216.1" stroke="#d8ddd2" stroke-width="1"/>
<text x="76" y="221.1" text-anchor="end" font-family="Helvetica, Arial, sans-serif" font-size="12" fill="#70757a">16.0M</text>
<line x1="88" y1="168.0" x2="1158" y2="168.0" stroke="#d8ddd2" stroke-width="1"/>
<text x="76" y="173.0" text-anchor="end" font-family="Helvetica, Arial, sans-serif" font-size="12" fill="#70757a">16.2M</text>
<line x1="88" y1="742.0" x2="1158" y2="742.0" stroke="#d8ddd2" stroke-width="1"/>
<text x="76" y="747.0" text-anchor="end" font-family="Helvetica, Arial, sans-serif" font-size="12" fill="#70757a">0</text>
<line x1="88" y1="680.9" x2="1158" y2="680.9" stroke="#d8ddd2" stroke-width="1"/>
<text x="76" y="685.9" text-anchor="end" font-family="Helvetica, Arial, sans-serif" font-size="12" fill="#70757a">100.0k</text>
<line x1="88" y1="619.9" x2="1158" y2="619.9" stroke="#d8ddd2" stroke-width="1"/>
<text x="76" y="624.9" text-anchor="end" font-family="Helvetica, Arial, sans-serif" font-size="12" fill="#70757a">200.0k</text>
<line x1="88" y1="558.8" x2="1158" y2="558.8" stroke="#d8ddd2" stroke-width="1"/>
<text x="76" y="563.8" text-anchor="end" font-family="Helvetica, Arial, sans-serif" font-size="12" fill="#70757a">300.0k</text>
<line x1="88" y1="497.8" x2="1158" y2="497.8" stroke="#d8ddd2" stroke-width="1"/>
<text x="76" y="502.8" text-anchor="end" font-family="Helvetica, Arial, sans-serif" font-size="12" fill="#70757a">400.0k</text>
<line x1="88" y1="1070.7" x2="1158" y2="1070.7" stroke="#d8ddd2" stroke-width="1"/>
<text x="76" y="1075.7" text-anchor="end" font-family="Helvetica, Arial, sans-serif" font-size="12" fill="#70757a">0</text>
<line x1="88" y1="986.7" x2="1158" y2="986.7" stroke="#d8ddd2" stroke-width="1"/>
<text x="76" y="991.7" text-anchor="end" font-family="Helvetica, Arial, sans-serif" font-size="12" fill="#70757a">50.0k</text>
<line x1="88" y1="902.8" x2="1158" y2="902.8" stroke="#d8ddd2" stroke-width="1"/>
<text x="76" y="907.8" text-anchor="end" font-family="Helvetica, Arial, sans-serif" font-size="12" fill="#70757a">100.0k</text>
<line x1="88" y1="818.9" x2="1158" y2="818.9" stroke="#d8ddd2" stroke-width="1"/>
<text x="76" y="823.9" text-anchor="end" font-family="Helvetica, Arial, sans-serif" font-size="12" fill="#70757a">150.0k</text>
<line x1="88" y1="1369.3" x2="1158" y2="1369.3" stroke="#d8ddd2" stroke-width="1"/>
<text x="76" y="1374.3" text-anchor="end" font-family="Helvetica, Arial, sans-serif" font-size="12" fill="#70757a">5</text>
<line x1="88" y1="1292.9" x2="1158" y2="1292.9" stroke="#d8ddd2" stroke-width="1"/>
<text x="76" y="1297.9" text-anchor="end" font-family="Helvetica, Arial, sans-serif" font-size="12" fill="#70757a">10</text>
<line x1="88" y1="1216.4" x2="1158" y2="1216.4" stroke="#d8ddd2" stroke-width="1"/>
<text x="76" y="1221.4" text-anchor="end" font-family="Helvetica, Arial, sans-serif" font-size="12" fill="#70757a">15</text>
<line x1="88" y1="1140.0" x2="1158" y2="1140.0" stroke="#d8ddd2" stroke-width="1"/>
<text x="76" y="1145.0" text-anchor="end" font-family="Helvetica, Arial, sans-serif" font-size="12" fill="#70757a">20</text>
<line x1="88" y1="1700.9" x2="1158" y2="1700.9" stroke="#d8ddd2" stroke-width="1"/>
<text x="76" y="1705.9" text-anchor="end" font-family="Helvetica, Arial, sans-serif" font-size="12" fill="#70757a">745.0k</text>
<line x1="88" y1="1653.5" x2="1158" y2="1653.5" stroke="#d8ddd2" stroke-width="1"/>
<text x="76" y="1658.5" text-anchor="end" font-family="Helvetica, Arial, sans-serif" font-size="12" fill="#70757a">750.0k</text>
<line x1="88" y1="1606.1" x2="1158" y2="1606.1" stroke="#d8ddd2" stroke-width="1"/>
<text x="76" y="1611.1" text-anchor="end" font-family="Helvetica, Arial, sans-serif" font-size="12" fill="#70757a">755.0k</text>
<line x1="88" y1="1558.8" x2="1158" y2="1558.8" stroke="#d8ddd2" stroke-width="1"/>
<text x="76" y="1563.8" text-anchor="end" font-family="Helvetica, Arial, sans-serif" font-size="12" fill="#70757a">760.0k</text>
<line x1="88" y1="1511.4" x2="1158" y2="1511.4" stroke="#d8ddd2" stroke-width="1"/>
<text x="76" y="1516.4" text-anchor="end" font-family="Helvetica, Arial, sans-serif" font-size="12" fill="#70757a">765.0k</text>
<line x1="88" y1="1464.0" x2="1158" y2="1464.0" stroke="#d8ddd2" stroke-width="1"/>
<text x="76" y="1469.0" text-anchor="end" font-family="Helvetica, Arial, sans-serif" font-size="12" fill="#70757a">770.0k</text>
<line x1="88" y1="1416.6" x2="1158" y2="1416.6" stroke="#d8ddd2" stroke-width="1"/>
<text x="76" y="1421.6" text-anchor="end" font-family="Helvetica, Arial, sans-serif" font-size="12" fill="#70757a">775.0k</text>
<path d="M 88.0 394.8 L 170.3 422.0 L 252.6 287.3 L 334.9 276.2 L 417.2 370.1 L 499.5 343.8 L 581.8 321.2 L 664.2 302.9 L 746.5 283.5 L 828.8 266.8 L 911.1 250.0 L 993.4 233.5 L 1075.7 208.0 L 1158.0 267.5" fill="none" stroke="#1f4e79" stroke-width="4" stroke-linecap="round" stroke-linejoin="round"/>
<circle cx="88.0" cy="394.8" r="5" fill="#1f4e79"/>
<circle cx="170.3" cy="422.0" r="5" fill="#1f4e79"/>
<circle cx="252.6" cy="287.3" r="5" fill="#1f4e79"/>
<circle cx="334.9" cy="276.2" r="5" fill="#1f4e79"/>
<circle cx="417.2" cy="370.1" r="5" fill="#1f4e79"/>
<circle cx="499.5" cy="343.8" r="5" fill="#1f4e79"/>
<circle cx="581.8" cy="321.2" r="5" fill="#1f4e79"/>
<circle cx="664.2" cy="302.9" r="5" fill="#1f4e79"/>
<circle cx="746.5" cy="283.5" r="5" fill="#1f4e79"/>
<circle cx="828.8" cy="266.8" r="5" fill="#1f4e79"/>
<circle cx="911.1" cy="250.0" r="5" fill="#1f4e79"/>
<circle cx="993.4" cy="233.5" r="5" fill="#1f4e79"/>
<circle cx="1075.7" cy="208.0" r="5" fill="#1f4e79"/>
<circle cx="1158.0" cy="267.5" r="7" fill="#1f4e79"/>
<text x="1168.0" y="257.5" font-family="Helvetica, Arial, sans-serif" font-size="13" font-weight="700" fill="#1f4e79">15,786,051</text>
<rect x="71.0" y="532.1" width="34" height="209.9" rx="4" fill="#2a9d8f"/>
<circle cx="88.0" cy="526.0" r="5" fill="#b3472c"/>
<rect x="153.3" y="514.0" width="34" height="228.0" rx="4" fill="#2a9d8f"/>
<circle cx="170.3" cy="526.0" r="5" fill="#b3472c"/>
<rect x="235.6" y="715.9" width="34" height="26.1" rx="4" fill="#2a9d8f"/>
<circle cx="252.6" cy="705.9" r="5" fill="#b3472c"/>
<rect x="317.9" y="715.5" width="34" height="26.5" rx="4" fill="#2a9d8f"/>
<circle cx="334.9" cy="705.5" r="5" fill="#b3472c"/>
<rect x="400.2" y="706.3" width="34" height="35.7" rx="4" fill="#2a9d8f"/>
<rect x="482.5" y="688.5" width="34" height="53.5" rx="4" fill="#2a9d8f"/>
<rect x="564.8" y="692.0" width="34" height="50.0" rx="4" fill="#2a9d8f"/>
<rect x="647.2" y="707.8" width="34" height="34.2" rx="4" fill="#2a9d8f"/>
<rect x="729.5" y="694.4" width="34" height="47.6" rx="4" fill="#2a9d8f"/>
<rect x="811.8" y="705.3" width="34" height="36.7" rx="4" fill="#2a9d8f"/>
<rect x="894.1" y="699.4" width="34" height="42.6" rx="4" fill="#2a9d8f"/>
<rect x="976.4" y="700.0" width="34" height="42.0" rx="4" fill="#2a9d8f"/>
<rect x="1058.7" y="678.7" width="34" height="63.3" rx="4" fill="#2a9d8f"/>
<rect x="1141.0" y="724.1" width="34" height="17.9" rx="4" fill="#2a9d8f"/>
<circle cx="1158.0" cy="714.1" r="5" fill="#b3472c"/>
<path d="M 88.0 1048.0 L 170.3 1023.5 L 252.6 1017.7 L 334.9 1003.2 L 417.2 968.5 L 499.5 936.5 L 581.8 921.2 L 664.2 901.8 L 746.5 884.6 L 828.8 872.6 L 911.1 859.4 L 993.4 847.9 L 1075.7 834.0 L 1158.0 873.4" fill="none" stroke="#6f5499" stroke-width="4" stroke-linecap="round" stroke-linejoin="round"/>
<circle cx="88.0" cy="1048.0" r="5" fill="#6f5499"/>
<circle cx="170.3" cy="1023.5" r="5" fill="#6f5499"/>
<circle cx="252.6" cy="1017.7" r="5" fill="#6f5499"/>
<circle cx="334.9" cy="1003.2" r="5" fill="#6f5499"/>
<circle cx="417.2" cy="968.5" r="5" fill="#6f5499"/>
<circle cx="499.5" cy="936.5" r="5" fill="#6f5499"/>
<circle cx="581.8" cy="921.2" r="5" fill="#6f5499"/>
<circle cx="664.2" cy="901.8" r="5" fill="#6f5499"/>
<circle cx="746.5" cy="884.6" r="5" fill="#6f5499"/>
<circle cx="828.8" cy="872.6" r="5" fill="#6f5499"/>
<circle cx="911.1" cy="859.4" r="5" fill="#6f5499"/>
<circle cx="993.4" cy="847.9" r="5" fill="#6f5499"/>
<circle cx="1075.7" cy="834.0" r="5" fill="#6f5499"/>
<circle cx="1158.0" cy="873.4" r="7" fill="#6f5499"/>
<text x="1168.0" y="863.4" font-family="Helvetica, Arial, sans-serif" font-size="13" font-weight="700" fill="#6f5499">117,532</text>
<path d="M 88.0 1354.0 L 170.3 1247.0 L 252.6 1247.0 L 334.9 1247.0 L 417.2 1231.7 L 499.5 1201.1 L 581.8 1170.6 L 664.2 1170.6 L 746.5 1170.6 L 828.8 1155.3 L 911.1 1155.3 L 993.4 1155.3 L 1075.7 1140.0 L 1158.0 1155.3" fill="none" stroke="#a6611a" stroke-width="4" stroke-linecap="round" stroke-linejoin="round"/>
<circle cx="88.0" cy="1354.0" r="5" fill="#a6611a"/>
<circle cx="170.3" cy="1247.0" r="5" fill="#a6611a"/>
<circle cx="252.6" cy="1247.0" r="5" fill="#a6611a"/>
<circle cx="334.9" cy="1247.0" r="5" fill="#a6611a"/>
<circle cx="417.2" cy="1231.7" r="5" fill="#a6611a"/>
<circle cx="499.5" cy="1201.1" r="5" fill="#a6611a"/>
<circle cx="581.8" cy="1170.6" r="5" fill="#a6611a"/>
<circle cx="664.2" cy="1170.6" r="5" fill="#a6611a"/>
<circle cx="746.5" cy="1170.6" r="5" fill="#a6611a"/>
<circle cx="828.8" cy="1155.3" r="5" fill="#a6611a"/>
<circle cx="911.1" cy="1155.3" r="5" fill="#a6611a"/>
<circle cx="993.4" cy="1155.3" r="5" fill="#a6611a"/>
<circle cx="1075.7" cy="1140.0" r="5" fill="#a6611a"/>
<circle cx="1158.0" cy="1155.3" r="7" fill="#a6611a"/>
<text x="1168.0" y="1145.3" font-family="Helvetica, Arial, sans-serif" font-size="13" font-weight="700" fill="#a6611a">19</text>
<path d="M 334.9 1660.0 L 417.2 1654.8 L 499.5 1625.9 L 581.8 1610.4 L 664.2 1590.5 L 746.5 1557.1 L 828.8 1525.8 L 911.1 1500.8 L 993.4 1478.1 L 1075.7 1446.0 L 1158.0 1527.6" fill="none" stroke="#2f6b3c" stroke-width="4" stroke-linecap="round" stroke-linejoin="round"/>
<circle cx="334.9" cy="1660.0" r="5" fill="#2f6b3c"/>
<circle cx="417.2" cy="1654.8" r="5" fill="#2f6b3c"/>
<circle cx="499.5" cy="1625.9" r="5" fill="#2f6b3c"/>
<circle cx="581.8" cy="1610.4" r="5" fill="#2f6b3c"/>
<circle cx="664.2" cy="1590.5" r="5" fill="#2f6b3c"/>
<circle cx="746.5" cy="1557.1" r="5" fill="#2f6b3c"/>
<circle cx="828.8" cy="1525.8" r="5" fill="#2f6b3c"/>
<circle cx="911.1" cy="1500.8" r="5" fill="#2f6b3c"/>
<circle cx="993.4" cy="1478.1" r="5" fill="#2f6b3c"/>
<circle cx="1075.7" cy="1446.0" r="5" fill="#2f6b3c"/>
<circle cx="1158.0" cy="1527.6" r="7" fill="#2f6b3c"/>
<text x="1168.0" y="1517.6" font-family="Helvetica, Arial, sans-serif" font-size="13" font-weight="700" fill="#2f6b3c">763,286</text>
<text x="88.0" y="1684" text-anchor="middle" font-family="Helvetica, Arial, sans-serif" font-size="12" fill="#70757a">06-24</text>
<text x="170.3" y="1684" text-anchor="middle" font-family="Helvetica, Arial, sans-serif" font-size="12" fill="#70757a">06-25</text>
<text x="252.6" y="1684" text-anchor="middle" font-family="Helvetica, Arial, sans-serif" font-size="12" fill="#70757a">06-29</text>
<text x="334.9" y="1684" text-anchor="middle" font-family="Helvetica, Arial, sans-serif" font-size="12" fill="#70757a">06-30</text>
<text x="417.2" y="1684" text-anchor="middle" font-family="Helvetica, Arial, sans-serif" font-size="12" fill="#70757a">07-01</text>
<text x="499.5" y="1684" text-anchor="middle" font-family="Helvetica, Arial, sans-serif" font-size="12" fill="#70757a">07-02</text>
<text x="581.8" y="1684" text-anchor="middle" font-family="Helvetica, Arial, sans-serif" font-size="12" fill="#70757a">07-03</text>
<text x="664.2" y="1684" text-anchor="middle" font-family="Helvetica, Arial, sans-serif" font-size="12" fill="#70757a">07-04</text>
<text x="746.5" y="1684" text-anchor="middle" font-family="Helvetica, Arial, sans-serif" font-size="12" fill="#70757a">07-05</text>
<text x="828.8" y="1684" text-anchor="middle" font-family="Helvetica, Arial, sans-serif" font-size="12" fill="#70757a">07-06</text>
<text x="911.1" y="1684" text-anchor="middle" font-family="Helvetica, Arial, sans-serif" font-size="12" fill="#70757a">07-07</text>
<text x="993.4" y="1684" text-anchor="middle" font-family="Helvetica, Arial, sans-serif" font-size="12" fill="#70757a">07-08</text>
<text x="1075.7" y="1684" text-anchor="middle" font-family="Helvetica, Arial, sans-serif" font-size="12" fill="#70757a">07-09</text>
<text x="1158.0" y="1684" text-anchor="middle" font-family="Helvetica, Arial, sans-serif" font-size="12" fill="#70757a">07-10</text>
<line x1="60" y1="1704" x2="84" y2="1704" stroke="#1f4e79" stroke-width="4"/>
<text x="94" y="1709" font-family="Helvetica, Arial, sans-serif" font-size="13" fill="#202126">Edges in KB</text>
<line x1="280" y1="1704" x2="304" y2="1704" stroke="#6f5499" stroke-width="4"/>
<text x="314" y="1709" font-family="Helvetica, Arial, sans-serif" font-size="13" fill="#202126">Pending queue</text>
<line x1="520" y1="1704" x2="544" y2="1704" stroke="#a6611a" stroke-width="4"/>
<text x="554" y="1709" font-family="Helvetica, Arial, sans-serif" font-size="13" fill="#202126">Fully crawled entities</text>
<line x1="800" y1="1704" x2="824" y2="1704" stroke="#2f6b3c" stroke-width="4"/>
<text x="834" y="1709" font-family="Helvetica, Arial, sans-serif" font-size="13" fill="#202126">Entities in KB (total)</text>
<rect x="60" y="1721" width="20" height="20" rx="4" fill="#2a9d8f"/>
<text x="90" y="1737" font-family="Helvetica, Arial, sans-serif" font-size="13" fill="#202126">Daily positive relationship gain</text>
<circle cx="400" cy="1731" r="5" fill="#b3472c"/>
<text x="414" y="1737" font-family="Helvetica, Arial, sans-serif" font-size="13" fill="#202126">Day includes edge-count drops/resets</text>
</svg>
