<svg xmlns="http://www.w3.org/2000/svg" width="1200" height="1756" viewBox="0 0 1200 1756">
<rect width="100%" height="100%" fill="#f7f7f2"/>
<text x="60" y="54" font-family="Helvetica, Arial, sans-serif" font-size="28" font-weight="700" fill="#202126">ExplainRx crawl growth</text>
<text x="60" y="78" font-family="Helvetica, Arial, sans-serif" font-size="15" fill="#70757a">Source: shared Pi crawl via agnes@192.168.1.22</text>
<text x="60" y="100" font-family="Helvetica, Arial, sans-serif" font-size="15" fill="#70757a">Daily relationship count and daily positive relationship gain, starting 2026-06-24 because earlier days used older ingestion rules</text>
<rect x="88" y="118" width="1070" height="56" fill="#ffffff" rx="10"/>
<rect x="88" y="208" width="1070" height="214" fill="#ffffff" rx="10"/>
<rect x="88" y="514" width="1070" height="228" fill="#ffffff" rx="10"/>
<rect x="88" y="834" width="1070" height="214" fill="#ffffff" rx="10"/>
<rect x="88" y="1140" width="1070" height="214" fill="#ffffff" rx="10"/>
<rect x="88" y="1446" width="1070" height="214" fill="#ffffff" rx="10"/>
<text x="88" y="190" font-family="Helvetica, Arial, sans-serif" font-size="18" font-weight="700" fill="#202126">Edges in KB (relationships, end-of-day total)</text>
<text x="88" y="496" font-family="Helvetica, Arial, sans-serif" font-size="18" font-weight="700" fill="#202126">Daily positive relationship gain</text>
<text x="1158" y="496" text-anchor="end" font-family="Helvetica, Arial, sans-serif" font-size="13" font-weight="700" fill="#2a9d8f">recent 10 days · latest 1.4k / max 253.2k</text>
<text x="88" y="816" font-family="Helvetica, Arial, sans-serif" font-size="18" font-weight="700" fill="#202126">End-of-day pending queue</text>
<text x="88" y="1122" font-family="Helvetica, Arial, sans-serif" font-size="18" font-weight="700" fill="#202126">Entity page crawls exhausted</text>
<text x="88" y="1428" font-family="Helvetica, Arial, sans-serif" font-size="18" font-weight="700" fill="#202126">Entities in KB (total)</text>
<text x="106.0" y="140" font-family="Helvetica, Arial, sans-serif" font-size="12" font-weight="700" fill="#70757a">Latest day</text>
<text x="106.0" y="163" font-family="Helvetica, Arial, sans-serif" font-size="18" font-weight="700" fill="#202126">2026-07-22</text>
<line x1="302.0" y1="128" x2="302.0" y2="164" stroke="#d8ddd2" stroke-width="1"/>
<text x="320.0" y="140" font-family="Helvetica, Arial, sans-serif" font-size="12" font-weight="700" fill="#70757a">Entities in KB</text>
<text x="320.0" y="163" font-family="Helvetica, Arial, sans-serif" font-size="18" font-weight="700" fill="#202126">796,237</text>
<line x1="516.0" y1="128" x2="516.0" y2="164" stroke="#d8ddd2" stroke-width="1"/>
<text x="534.0" y="140" font-family="Helvetica, Arial, sans-serif" font-size="12" font-weight="700" fill="#70757a">Edges in KB</text>
<text x="534.0" y="163" font-family="Helvetica, Arial, sans-serif" font-size="18" font-weight="700" fill="#202126">16,468,391</text>
<line x1="730.0" y1="128" x2="730.0" y2="164" stroke="#d8ddd2" stroke-width="1"/>
<text x="748.0" y="140" font-family="Helvetica, Arial, sans-serif" font-size="12" font-weight="700" fill="#70757a">Positive gain</text>
<text x="748.0" y="163" font-family="Helvetica, Arial, sans-serif" font-size="18" font-weight="700" fill="#202126">1,441</text>
<line x1="944.0" y1="128" x2="944.0" y2="164" stroke="#d8ddd2" stroke-width="1"/>
<text x="962.0" y="140" font-family="Helvetica, Arial, sans-serif" font-size="12" font-weight="700" fill="#70757a">Fully crawled</text>
<text x="962.0" y="163" font-family="Helvetica, Arial, sans-serif" font-size="18" font-weight="700" fill="#202126">182</text>
<line x1="88" y1="445.0" x2="1158" y2="445.0" stroke="#d8ddd2" stroke-width="1"/>
<text x="76" y="450.0" text-anchor="end" font-family="Helvetica, Arial, sans-serif" font-size="12" fill="#70757a">15.0M</text>
<line x1="88" y1="364.8" x2="1158" y2="364.8" stroke="#d8ddd2" stroke-width="1"/>
<text x="76" y="369.8" text-anchor="end" font-family="Helvetica, Arial, sans-serif" font-size="12" fill="#70757a">15.5M</text>
<line x1="88" y1="284.7" x2="1158" y2="284.7" stroke="#d8ddd2" stroke-width="1"/>
<text x="76" y="289.7" text-anchor="end" font-family="Helvetica, Arial, sans-serif" font-size="12" fill="#70757a">16.0M</text>
<line x1="88" y1="204.5" x2="1158" y2="204.5" stroke="#d8ddd2" stroke-width="1"/>
<text x="76" y="209.5" text-anchor="end" font-family="Helvetica, Arial, sans-serif" font-size="12" fill="#70757a">16.5M</text>
<line x1="88" y1="742.0" x2="1158" y2="742.0" stroke="#d8ddd2" stroke-width="1"/>
<text x="76" y="747.0" text-anchor="end" font-family="Helvetica, Arial, sans-serif" font-size="12" fill="#70757a">0</text>
<line x1="88" y1="652.0" x2="1158" y2="652.0" stroke="#d8ddd2" stroke-width="1"/>
<text x="76" y="657.0" text-anchor="end" font-family="Helvetica, Arial, sans-serif" font-size="12" fill="#70757a">100.0k</text>
<line x1="88" y1="561.9" x2="1158" y2="561.9" stroke="#d8ddd2" stroke-width="1"/>
<text x="76" y="566.9" text-anchor="end" font-family="Helvetica, Arial, sans-serif" font-size="12" fill="#70757a">200.0k</text>
<line x1="88" y1="471.9" x2="1158" y2="471.9" stroke="#d8ddd2" stroke-width="1"/>
<text x="76" y="476.9" text-anchor="end" font-family="Helvetica, Arial, sans-serif" font-size="12" fill="#70757a">300.0k</text>
<line x1="88" y1="1060.6" x2="1158" y2="1060.6" stroke="#d8ddd2" stroke-width="1"/>
<text x="76" y="1065.6" text-anchor="end" font-family="Helvetica, Arial, sans-serif" font-size="12" fill="#70757a">0</text>
<line x1="88" y1="1013.9" x2="1158" y2="1013.9" stroke="#d8ddd2" stroke-width="1"/>
<text x="76" y="1018.9" text-anchor="end" font-family="Helvetica, Arial, sans-serif" font-size="12" fill="#70757a">50.0k</text>
<line x1="88" y1="967.1" x2="1158" y2="967.1" stroke="#d8ddd2" stroke-width="1"/>
<text x="76" y="972.1" text-anchor="end" font-family="Helvetica, Arial, sans-serif" font-size="12" fill="#70757a">100.0k</text>
<line x1="88" y1="920.3" x2="1158" y2="920.3" stroke="#d8ddd2" stroke-width="1"/>
<text x="76" y="925.3" text-anchor="end" font-family="Helvetica, Arial, sans-serif" font-size="12" fill="#70757a">150.0k</text>
<line x1="88" y1="873.5" x2="1158" y2="873.5" stroke="#d8ddd2" stroke-width="1"/>
<text x="76" y="878.5" text-anchor="end" font-family="Helvetica, Arial, sans-serif" font-size="12" fill="#70757a">200.0k</text>
<line x1="88" y1="826.7" x2="1158" y2="826.7" stroke="#d8ddd2" stroke-width="1"/>
<text x="76" y="831.7" text-anchor="end" font-family="Helvetica, Arial, sans-serif" font-size="12" fill="#70757a">250.0k</text>
<line x1="88" y1="1364.7" x2="1158" y2="1364.7" stroke="#d8ddd2" stroke-width="1"/>
<text x="76" y="1369.7" text-anchor="end" font-family="Helvetica, Arial, sans-serif" font-size="12" fill="#70757a">140</text>
<line x1="88" y1="1311.2" x2="1158" y2="1311.2" stroke="#d8ddd2" stroke-width="1"/>
<text x="76" y="1316.2" text-anchor="end" font-family="Helvetica, Arial, sans-serif" font-size="12" fill="#70757a">150</text>
<line x1="88" y1="1257.7" x2="1158" y2="1257.7" stroke="#d8ddd2" stroke-width="1"/>
<text x="76" y="1262.7" text-anchor="end" font-family="Helvetica, Arial, sans-serif" font-size="12" fill="#70757a">160</text>
<line x1="88" y1="1204.2" x2="1158" y2="1204.2" stroke="#d8ddd2" stroke-width="1"/>
<text x="76" y="1209.2" text-anchor="end" font-family="Helvetica, Arial, sans-serif" font-size="12" fill="#70757a">170</text>
<line x1="88" y1="1150.7" x2="1158" y2="1150.7" stroke="#d8ddd2" stroke-width="1"/>
<text x="76" y="1155.7" text-anchor="end" font-family="Helvetica, Arial, sans-serif" font-size="12" fill="#70757a">180</text>
<line x1="88" y1="1097.2" x2="1158" y2="1097.2" stroke="#d8ddd2" stroke-width="1"/>
<text x="76" y="1102.2" text-anchor="end" font-family="Helvetica, Arial, sans-serif" font-size="12" fill="#70757a">190</text>
<line x1="88" y1="1702.5" x2="1158" y2="1702.5" stroke="#d8ddd2" stroke-width="1"/>
<text x="76" y="1707.5" text-anchor="end" font-family="Helvetica, Arial, sans-serif" font-size="12" fill="#70757a">740.0k</text>
<line x1="88" y1="1656.9" x2="1158" y2="1656.9" stroke="#d8ddd2" stroke-width="1"/>
<text x="76" y="1661.9" text-anchor="end" font-family="Helvetica, Arial, sans-serif" font-size="12" fill="#70757a">750.0k</text>
<line x1="88" y1="1611.3" x2="1158" y2="1611.3" stroke="#d8ddd2" stroke-width="1"/>
<text x="76" y="1616.3" text-anchor="end" font-family="Helvetica, Arial, sans-serif" font-size="12" fill="#70757a">760.0k</text>
<line x1="88" y1="1565.7" x2="1158" y2="1565.7" stroke="#d8ddd2" stroke-width="1"/>
<text x="76" y="1570.7" text-anchor="end" font-family="Helvetica, Arial, sans-serif" font-size="12" fill="#70757a">770.0k</text>
<line x1="88" y1="1520.1" x2="1158" y2="1520.1" stroke="#d8ddd2" stroke-width="1"/>
<text x="76" y="1525.1" text-anchor="end" font-family="Helvetica, Arial, sans-serif" font-size="12" fill="#70757a">780.0k</text>
<line x1="88" y1="1474.4" x2="1158" y2="1474.4" stroke="#d8ddd2" stroke-width="1"/>
<text x="76" y="1479.4" text-anchor="end" font-family="Helvetica, Arial, sans-serif" font-size="12" fill="#70757a">790.0k</text>
<line x1="88" y1="1428.8" x2="1158" y2="1428.8" stroke="#d8ddd2" stroke-width="1"/>
<text x="76" y="1433.8" text-anchor="end" font-family="Helvetica, Arial, sans-serif" font-size="12" fill="#70757a">800.0k</text>
<path d="M 88.0 403.8 L 139.0 422.0 L 189.9 332.2 L 240.9 324.7 L 291.8 387.4 L 342.8 369.8 L 393.7 354.8 L 444.7 342.5 L 495.6 329.6 L 546.6 318.5 L 597.5 307.3 L 648.5 296.3 L 699.4 279.3 L 750.4 270.3 L 801.3 268.9 L 852.3 260.6 L 903.2 251.2 L 954.2 248.4 L 1005.1 219.9 L 1056.1 212.0 L 1107.0 208.0 L 1158.0 209.6" fill="none" stroke="#1f4e79" stroke-width="4" stroke-linecap="round" stroke-linejoin="round"/>
<circle cx="88.0" cy="403.8" r="5" fill="#1f4e79"/>
<circle cx="139.0" cy="422.0" r="5" fill="#1f4e79"/>
<circle cx="189.9" cy="332.2" r="5" fill="#1f4e79"/>
<circle cx="240.9" cy="324.7" r="5" fill="#1f4e79"/>
<circle cx="291.8" cy="387.4" r="5" fill="#1f4e79"/>
<circle cx="342.8" cy="369.8" r="5" fill="#1f4e79"/>
<circle cx="393.7" cy="354.8" r="5" fill="#1f4e79"/>
<circle cx="444.7" cy="342.5" r="5" fill="#1f4e79"/>
<circle cx="495.6" cy="329.6" r="5" fill="#1f4e79"/>
<circle cx="546.6" cy="318.5" r="5" fill="#1f4e79"/>
<circle cx="597.5" cy="307.3" r="5" fill="#1f4e79"/>
<circle cx="648.5" cy="296.3" r="5" fill="#1f4e79"/>
<circle cx="699.4" cy="279.3" r="5" fill="#1f4e79"/>
<circle cx="750.4" cy="270.3" r="5" fill="#1f4e79"/>
<circle cx="801.3" cy="268.9" r="5" fill="#1f4e79"/>
<circle cx="852.3" cy="260.6" r="5" fill="#1f4e79"/>
<circle cx="903.2" cy="251.2" r="5" fill="#1f4e79"/>
<circle cx="954.2" cy="248.4" r="5" fill="#1f4e79"/>
<circle cx="1005.1" cy="219.9" r="5" fill="#1f4e79"/>
<circle cx="1056.1" cy="212.0" r="5" fill="#1f4e79"/>
<circle cx="1107.0" cy="208.0" r="5" fill="#1f4e79"/>
<circle cx="1158.0" cy="209.6" r="7" fill="#1f4e79"/>
<text x="1168.0" y="199.6" font-family="Helvetica, Arial, sans-serif" font-size="13" font-weight="700" fill="#1f4e79">16,468,391</text>
<rect x="74.5" y="648.7" width="27" height="93.3" rx="4" fill="#2a9d8f" stroke="none" stroke-width="0"/>
<text x="88.0" y="638.7" text-anchor="middle" font-family="Helvetica, Arial, sans-serif" font-size="13" font-weight="700" fill="#2a9d8f">103.6k</text>
<rect x="193.4" y="691.9" width="27" height="50.1" rx="4" fill="#2a9d8f" stroke="none" stroke-width="0"/>
<text x="206.9" y="681.9" text-anchor="middle" font-family="Helvetica, Arial, sans-serif" font-size="13" font-weight="700" fill="#2a9d8f">55.7k</text>
<rect x="312.3" y="733.9" width="27" height="8.1" rx="4" fill="#2a9d8f" stroke="none" stroke-width="0"/>
<text x="325.8" y="723.9" text-anchor="middle" font-family="Helvetica, Arial, sans-serif" font-size="13" font-weight="700" fill="#2a9d8f">9.0k</text>
<rect x="431.2" y="696.1" width="27" height="45.9" rx="4" fill="#2a9d8f" stroke="none" stroke-width="0"/>
<text x="444.7" y="686.1" text-anchor="middle" font-family="Helvetica, Arial, sans-serif" font-size="13" font-weight="700" fill="#2a9d8f">50.9k</text>
<rect x="550.1" y="689.3" width="27" height="52.7" rx="4" fill="#2a9d8f" stroke="none" stroke-width="0"/>
<text x="563.6" y="679.3" text-anchor="middle" font-family="Helvetica, Arial, sans-serif" font-size="13" font-weight="700" fill="#2a9d8f">58.5k</text>
<rect x="668.9" y="722.9" width="27" height="19.1" rx="4" fill="#2a9d8f" stroke="none" stroke-width="0"/>
<text x="682.4" y="712.9" text-anchor="middle" font-family="Helvetica, Arial, sans-serif" font-size="13" font-weight="700" fill="#2a9d8f">21.2k</text>
<circle cx="682.4" cy="712.9" r="5" fill="#b3472c"/>
<rect x="787.8" y="514.0" width="27" height="228.0" rx="4" fill="#2a9d8f" stroke="none" stroke-width="0"/>
<text x="801.3" y="530.0" text-anchor="middle" font-family="Helvetica, Arial, sans-serif" font-size="13" font-weight="700" fill="#2a9d8f">253.2k</text>
<circle cx="801.3" cy="526.0" r="5" fill="#b3472c"/>
<rect x="906.7" y="700.4" width="27" height="41.6" rx="4" fill="#2a9d8f" stroke="none" stroke-width="0"/>
<text x="920.2" y="690.4" text-anchor="middle" font-family="Helvetica, Arial, sans-serif" font-size="13" font-weight="700" fill="#2a9d8f">46.2k</text>
<circle cx="920.2" cy="690.4" r="5" fill="#b3472c"/>
<rect x="1025.6" y="571.6" width="27" height="170.4" rx="4" fill="#2a9d8f" stroke="none" stroke-width="0"/>
<text x="1039.1" y="561.6" text-anchor="middle" font-family="Helvetica, Arial, sans-serif" font-size="13" font-weight="700" fill="#2a9d8f">189.2k</text>
<circle cx="1039.1" cy="561.6" r="5" fill="#b3472c"/>
<rect x="1144.5" y="740.7" width="27" height="1.3" rx="4" fill="#2a9d8f" stroke="#1f6f66" stroke-width="2"/>
<text x="1158.0" y="730.7" text-anchor="middle" font-family="Helvetica, Arial, sans-serif" font-size="13" font-weight="700" fill="#2a9d8f">1,441</text>
<circle cx="1158.0" cy="730.7" r="5" fill="#b3472c"/>
<text x="88.0" y="764" text-anchor="middle" font-family="Helvetica, Arial, sans-serif" font-size="12" fill="#70757a">07-09</text>
<text x="206.9" y="764" text-anchor="middle" font-family="Helvetica, Arial, sans-serif" font-size="12" fill="#70757a">07-10</text>
<text x="325.8" y="764" text-anchor="middle" font-family="Helvetica, Arial, sans-serif" font-size="12" fill="#70757a">07-14</text>
<text x="444.7" y="764" text-anchor="middle" font-family="Helvetica, Arial, sans-serif" font-size="12" fill="#70757a">07-15</text>
<text x="563.6" y="764" text-anchor="middle" font-family="Helvetica, Arial, sans-serif" font-size="12" fill="#70757a">07-16</text>
<text x="682.4" y="764" text-anchor="middle" font-family="Helvetica, Arial, sans-serif" font-size="12" fill="#70757a">07-17</text>
<text x="801.3" y="764" text-anchor="middle" font-family="Helvetica, Arial, sans-serif" font-size="12" fill="#70757a">07-18</text>
<text x="920.2" y="764" text-anchor="middle" font-family="Helvetica, Arial, sans-serif" font-size="12" fill="#70757a">07-19</text>
<text x="1039.1" y="764" text-anchor="middle" font-family="Helvetica, Arial, sans-serif" font-size="12" fill="#70757a">07-21</text>
<text x="1158.0" y="764" text-anchor="middle" font-family="Helvetica, Arial, sans-serif" font-size="12" fill="#70757a">07-22</text>
<path d="M 88.0 1048.0 L 139.0 1034.3 L 189.9 1031.1 L 240.9 1023.0 L 291.8 1003.7 L 342.8 985.9 L 393.7 977.3 L 444.7 966.5 L 495.6 956.9 L 546.6 950.2 L 597.5 942.9 L 648.5 936.5 L 699.4 928.7 L 750.4 924.7 L 801.3 924.0 L 852.3 920.3 L 903.2 918.1 L 954.2 916.4 L 1005.1 873.0 L 1056.1 865.5 L 1107.0 835.6 L 1158.0 834.0" fill="none" stroke="#6f5499" stroke-width="4" stroke-linecap="round" stroke-linejoin="round"/>
<circle cx="88.0" cy="1048.0" r="5" fill="#6f5499"/>
<circle cx="139.0" cy="1034.3" r="5" fill="#6f5499"/>
<circle cx="189.9" cy="1031.1" r="5" fill="#6f5499"/>
<circle cx="240.9" cy="1023.0" r="5" fill="#6f5499"/>
<circle cx="291.8" cy="1003.7" r="5" fill="#6f5499"/>
<circle cx="342.8" cy="985.9" r="5" fill="#6f5499"/>
<circle cx="393.7" cy="977.3" r="5" fill="#6f5499"/>
<circle cx="444.7" cy="966.5" r="5" fill="#6f5499"/>
<circle cx="495.6" cy="956.9" r="5" fill="#6f5499"/>
<circle cx="546.6" cy="950.2" r="5" fill="#6f5499"/>
<circle cx="597.5" cy="942.9" r="5" fill="#6f5499"/>
<circle cx="648.5" cy="936.5" r="5" fill="#6f5499"/>
<circle cx="699.4" cy="928.7" r="5" fill="#6f5499"/>
<circle cx="750.4" cy="924.7" r="5" fill="#6f5499"/>
<circle cx="801.3" cy="924.0" r="5" fill="#6f5499"/>
<circle cx="852.3" cy="920.3" r="5" fill="#6f5499"/>
<circle cx="903.2" cy="918.1" r="5" fill="#6f5499"/>
<circle cx="954.2" cy="916.4" r="5" fill="#6f5499"/>
<circle cx="1005.1" cy="873.0" r="5" fill="#6f5499"/>
<circle cx="1056.1" cy="865.5" r="5" fill="#6f5499"/>
<circle cx="1107.0" cy="835.6" r="5" fill="#6f5499"/>
<circle cx="1158.0" cy="834.0" r="7" fill="#6f5499"/>
<text x="1168.0" y="824.0" font-family="Helvetica, Arial, sans-serif" font-size="13" font-weight="700" fill="#6f5499">242,230</text>
<path d="M 88.0 1354.0 L 139.0 1343.3 L 189.9 1338.0 L 240.9 1338.0 L 291.8 1338.0 L 342.8 1332.6 L 393.7 1327.2 L 444.7 1327.2 L 495.6 1284.5 L 546.6 1284.5 L 597.5 1284.5 L 648.5 1284.5 L 699.4 1273.8 L 750.4 1273.8 L 801.3 1273.8 L 852.3 1273.8 L 903.2 1273.8 L 954.2 1273.8 L 1005.1 1241.7 L 1056.1 1214.9 L 1107.0 1140.0 L 1158.0 1140.0" fill="none" stroke="#a6611a" stroke-width="4" stroke-linecap="round" stroke-linejoin="round"/>
<circle cx="88.0" cy="1354.0" r="5" fill="#a6611a"/>
<circle cx="139.0" cy="1343.3" r="5" fill="#a6611a"/>
<circle cx="189.9" cy="1338.0" r="5" fill="#a6611a"/>
<circle cx="240.9" cy="1338.0" r="5" fill="#a6611a"/>
<circle cx="291.8" cy="1338.0" r="5" fill="#a6611a"/>
<circle cx="342.8" cy="1332.6" r="5" fill="#a6611a"/>
<circle cx="393.7" cy="1327.2" r="5" fill="#a6611a"/>
<circle cx="444.7" cy="1327.2" r="5" fill="#a6611a"/>
<circle cx="495.6" cy="1284.5" r="5" fill="#a6611a"/>
<circle cx="546.6" cy="1284.5" r="5" fill="#a6611a"/>
<circle cx="597.5" cy="1284.5" r="5" fill="#a6611a"/>
<circle cx="648.5" cy="1284.5" r="5" fill="#a6611a"/>
<circle cx="699.4" cy="1273.8" r="5" fill="#a6611a"/>
<circle cx="750.4" cy="1273.8" r="5" fill="#a6611a"/>
<circle cx="801.3" cy="1273.8" r="5" fill="#a6611a"/>
<circle cx="852.3" cy="1273.8" r="5" fill="#a6611a"/>
<circle cx="903.2" cy="1273.8" r="5" fill="#a6611a"/>
<circle cx="954.2" cy="1273.8" r="5" fill="#a6611a"/>
<circle cx="1005.1" cy="1241.7" r="5" fill="#a6611a"/>
<circle cx="1056.1" cy="1214.9" r="5" fill="#a6611a"/>
<circle cx="1107.0" cy="1140.0" r="5" fill="#a6611a"/>
<circle cx="1158.0" cy="1140.0" r="7" fill="#a6611a"/>
<text x="1168.0" y="1130.0" font-family="Helvetica, Arial, sans-serif" font-size="13" font-weight="700" fill="#a6611a">182</text>
<path d="M 240.9 1660.0 L 291.8 1657.5 L 342.8 1643.6 L 393.7 1636.1 L 444.7 1626.5 L 495.6 1610.5 L 546.6 1595.4 L 597.5 1583.4 L 648.5 1572.4 L 699.4 1557.0 L 750.4 1550.9 L 801.3 1549.8 L 852.3 1544.6 L 903.2 1539.3 L 954.2 1537.2 L 1005.1 1494.0 L 1056.1 1486.0 L 1107.0 1446.0 L 1158.0 1446.0" fill="none" stroke="#2f6b3c" stroke-width="4" stroke-linecap="round" stroke-linejoin="round"/>
<circle cx="240.9" cy="1660.0" r="5" fill="#2f6b3c"/>
<circle cx="291.8" cy="1657.5" r="5" fill="#2f6b3c"/>
<circle cx="342.8" cy="1643.6" r="5" fill="#2f6b3c"/>
<circle cx="393.7" cy="1636.1" r="5" fill="#2f6b3c"/>
<circle cx="444.7" cy="1626.5" r="5" fill="#2f6b3c"/>
<circle cx="495.6" cy="1610.5" r="5" fill="#2f6b3c"/>
<circle cx="546.6" cy="1595.4" r="5" fill="#2f6b3c"/>
<circle cx="597.5" cy="1583.4" r="5" fill="#2f6b3c"/>
<circle cx="648.5" cy="1572.4" r="5" fill="#2f6b3c"/>
<circle cx="699.4" cy="1557.0" r="5" fill="#2f6b3c"/>
<circle cx="750.4" cy="1550.9" r="5" fill="#2f6b3c"/>
<circle cx="801.3" cy="1549.8" r="5" fill="#2f6b3c"/>
<circle cx="852.3" cy="1544.6" r="5" fill="#2f6b3c"/>
<circle cx="903.2" cy="1539.3" r="5" fill="#2f6b3c"/>
<circle cx="954.2" cy="1537.2" r="5" fill="#2f6b3c"/>
<circle cx="1005.1" cy="1494.0" r="5" fill="#2f6b3c"/>
<circle cx="1056.1" cy="1486.0" r="5" fill="#2f6b3c"/>
<circle cx="1107.0" cy="1446.0" r="5" fill="#2f6b3c"/>
<circle cx="1158.0" cy="1446.0" r="7" fill="#2f6b3c"/>
<text x="1168.0" y="1436.0" font-family="Helvetica, Arial, sans-serif" font-size="13" font-weight="700" fill="#2f6b3c">796,237</text>
<text x="88.0" y="1684" text-anchor="middle" font-family="Helvetica, Arial, sans-serif" font-size="12" fill="#70757a">06-24</text>
<text x="139.0" y="1684" text-anchor="middle" font-family="Helvetica, Arial, sans-serif" font-size="12" fill="#70757a">06-25</text>
<text x="189.9" y="1684" text-anchor="middle" font-family="Helvetica, Arial, sans-serif" font-size="12" fill="#70757a">06-29</text>
<text x="240.9" y="1684" text-anchor="middle" font-family="Helvetica, Arial, sans-serif" font-size="12" fill="#70757a">06-30</text>
<text x="291.8" y="1684" text-anchor="middle" font-family="Helvetica, Arial, sans-serif" font-size="12" fill="#70757a">07-01</text>
<text x="342.8" y="1684" text-anchor="middle" font-family="Helvetica, Arial, sans-serif" font-size="12" fill="#70757a">07-02</text>
<text x="393.7" y="1684" text-anchor="middle" font-family="Helvetica, Arial, sans-serif" font-size="12" fill="#70757a">07-03</text>
<text x="444.7" y="1684" text-anchor="middle" font-family="Helvetica, Arial, sans-serif" font-size="12" fill="#70757a">07-04</text>
<text x="495.6" y="1684" text-anchor="middle" font-family="Helvetica, Arial, sans-serif" font-size="12" fill="#70757a">07-05</text>
<text x="546.6" y="1684" text-anchor="middle" font-family="Helvetica, Arial, sans-serif" font-size="12" fill="#70757a">07-06</text>
<text x="597.5" y="1684" text-anchor="middle" font-family="Helvetica, Arial, sans-serif" font-size="12" fill="#70757a">07-07</text>
<text x="648.5" y="1684" text-anchor="middle" font-family="Helvetica, Arial, sans-serif" font-size="12" fill="#70757a">07-08</text>
<text x="699.4" y="1684" text-anchor="middle" font-family="Helvetica, Arial, sans-serif" font-size="12" fill="#70757a">07-09</text>
<text x="750.4" y="1684" text-anchor="middle" font-family="Helvetica, Arial, sans-serif" font-size="12" fill="#70757a">07-10</text>
<text x="801.3" y="1684" text-anchor="middle" font-family="Helvetica, Arial, sans-serif" font-size="12" fill="#70757a">07-14</text>
<text x="852.3" y="1684" text-anchor="middle" font-family="Helvetica, Arial, sans-serif" font-size="12" fill="#70757a">07-15</text>
<text x="903.2" y="1684" text-anchor="middle" font-family="Helvetica, Arial, sans-serif" font-size="12" fill="#70757a">07-16</text>
<text x="954.2" y="1684" text-anchor="middle" font-family="Helvetica, Arial, sans-serif" font-size="12" fill="#70757a">07-17</text>
<text x="1005.1" y="1684" text-anchor="middle" font-family="Helvetica, Arial, sans-serif" font-size="12" fill="#70757a">07-18</text>
<text x="1056.1" y="1684" text-anchor="middle" font-family="Helvetica, Arial, sans-serif" font-size="12" fill="#70757a">07-19</text>
<text x="1107.0" y="1684" text-anchor="middle" font-family="Helvetica, Arial, sans-serif" font-size="12" fill="#70757a">07-21</text>
<text x="1158.0" y="1684" text-anchor="middle" font-family="Helvetica, Arial, sans-serif" font-size="12" fill="#70757a">07-22</text>
<line x1="60" y1="1704" x2="84" y2="1704" stroke="#1f4e79" stroke-width="4"/>
<text x="94" y="1709" font-family="Helvetica, Arial, sans-serif" font-size="13" fill="#202126">Edges in KB</text>
<line x1="280" y1="1704" x2="304" y2="1704" stroke="#6f5499" stroke-width="4"/>
<text x="314" y="1709" font-family="Helvetica, Arial, sans-serif" font-size="13" fill="#202126">Pending queue</text>
<line x1="520" y1="1704" x2="544" y2="1704" stroke="#a6611a" stroke-width="4"/>
<text x="554" y="1709" font-family="Helvetica, Arial, sans-serif" font-size="13" fill="#202126">Entity page crawls exhausted</text>
<line x1="800" y1="1704" x2="824" y2="1704" stroke="#2f6b3c" stroke-width="4"/>
<text x="834" y="1709" font-family="Helvetica, Arial, sans-serif" font-size="13" fill="#202126">Entities in KB (total)</text>
<rect x="60" y="1721" width="20" height="20" rx="4" fill="#2a9d8f"/>
<text x="90" y="1737" font-family="Helvetica, Arial, sans-serif" font-size="13" fill="#202126">Daily positive relationship gain</text>
<circle cx="400" cy="1731" r="5" fill="#b3472c"/>
<text x="414" y="1737" font-family="Helvetica, Arial, sans-serif" font-size="13" fill="#202126">Day includes edge-count drops/resets</text>
</svg>
