<svg xmlns="http://www.w3.org/2000/svg" width="1200" height="1756" viewBox="0 0 1200 1756">
<rect width="100%" height="100%" fill="#f7f7f2"/>
<text x="60" y="54" font-family="Helvetica, Arial, sans-serif" font-size="28" font-weight="700" fill="#202126">ExplainRx crawl growth</text>
<text x="60" y="78" font-family="Helvetica, Arial, sans-serif" font-size="15" fill="#70757a">Source: shared Pi crawl via agnes@192.168.1.21</text>
<text x="60" y="100" font-family="Helvetica, Arial, sans-serif" font-size="15" fill="#70757a">Daily relationship count and daily positive relationship gain, starting 2026-06-24 because earlier days used older ingestion rules</text>
<rect x="88" y="118" width="1070" height="56" fill="#ffffff" rx="10"/>
<rect x="88" y="208" width="1070" height="214" fill="#ffffff" rx="10"/>
<rect x="88" y="514" width="1070" height="228" fill="#ffffff" rx="10"/>
<rect x="88" y="834" width="1070" height="214" fill="#ffffff" rx="10"/>
<rect x="88" y="1140" width="1070" height="214" fill="#ffffff" rx="10"/>
<rect x="88" y="1446" width="1070" height="214" fill="#ffffff" rx="10"/>
<text x="88" y="190" font-family="Helvetica, Arial, sans-serif" font-size="18" font-weight="700" fill="#202126">Edges in KB (relationships, end-of-day total)</text>
<text x="88" y="496" font-family="Helvetica, Arial, sans-serif" font-size="18" font-weight="700" fill="#202126">Daily positive relationship gain</text>
<text x="88" y="816" font-family="Helvetica, Arial, sans-serif" font-size="18" font-weight="700" fill="#202126">End-of-day pending queue</text>
<text x="88" y="1122" font-family="Helvetica, Arial, sans-serif" font-size="18" font-weight="700" fill="#202126">Entities fully crawled (all pages)</text>
<text x="88" y="1428" font-family="Helvetica, Arial, sans-serif" font-size="18" font-weight="700" fill="#202126">Entities in KB (total)</text>
<text x="106.0" y="140" font-family="Helvetica, Arial, sans-serif" font-size="12" font-weight="700" fill="#70757a">Latest day</text>
<text x="106.0" y="163" font-family="Helvetica, Arial, sans-serif" font-size="18" font-weight="700" fill="#202126">2026-07-15</text>
<line x1="302.0" y1="128" x2="302.0" y2="164" stroke="#d8ddd2" stroke-width="1"/>
<text x="320.0" y="140" font-family="Helvetica, Arial, sans-serif" font-size="12" font-weight="700" fill="#70757a">Entities in KB</text>
<text x="320.0" y="163" font-family="Helvetica, Arial, sans-serif" font-size="18" font-weight="700" fill="#202126">773,785</text>
<line x1="516.0" y1="128" x2="516.0" y2="164" stroke="#d8ddd2" stroke-width="1"/>
<text x="534.0" y="140" font-family="Helvetica, Arial, sans-serif" font-size="12" font-weight="700" fill="#70757a">Edges in KB</text>
<text x="534.0" y="163" font-family="Helvetica, Arial, sans-serif" font-size="18" font-weight="700" fill="#202126">16,113,166</text>
<line x1="730.0" y1="128" x2="730.0" y2="164" stroke="#d8ddd2" stroke-width="1"/>
<text x="748.0" y="140" font-family="Helvetica, Arial, sans-serif" font-size="12" font-weight="700" fill="#70757a">Positive gain</text>
<text x="748.0" y="163" font-family="Helvetica, Arial, sans-serif" font-size="18" font-weight="700" fill="#202126">14,015</text>
<line x1="944.0" y1="128" x2="944.0" y2="164" stroke="#d8ddd2" stroke-width="1"/>
<text x="962.0" y="140" font-family="Helvetica, Arial, sans-serif" font-size="12" font-weight="700" fill="#70757a">Fully crawled</text>
<text x="962.0" y="163" font-family="Helvetica, Arial, sans-serif" font-size="18" font-weight="700" fill="#202126">152</text>
<line x1="88" y1="453.7" x2="1158" y2="453.7" stroke="#d8ddd2" stroke-width="1"/>
<text x="76" y="458.7" text-anchor="end" font-family="Helvetica, Arial, sans-serif" font-size="12" fill="#70757a">15.0M</text>
<line x1="88" y1="409.5" x2="1158" y2="409.5" stroke="#d8ddd2" stroke-width="1"/>
<text x="76" y="414.5" text-anchor="end" font-family="Helvetica, Arial, sans-serif" font-size="12" fill="#70757a">15.2M</text>
<line x1="88" y1="365.4" x2="1158" y2="365.4" stroke="#d8ddd2" stroke-width="1"/>
<text x="76" y="370.4" text-anchor="end" font-family="Helvetica, Arial, sans-serif" font-size="12" fill="#70757a">15.4M</text>
<line x1="88" y1="321.2" x2="1158" y2="321.2" stroke="#d8ddd2" stroke-width="1"/>
<text x="76" y="326.2" text-anchor="end" font-family="Helvetica, Arial, sans-serif" font-size="12" fill="#70757a">15.6M</text>
<line x1="88" y1="277.1" x2="1158" y2="277.1" stroke="#d8ddd2" stroke-width="1"/>
<text x="76" y="282.1" text-anchor="end" font-family="Helvetica, Arial, sans-serif" font-size="12" fill="#70757a">15.8M</text>
<line x1="88" y1="233.0" x2="1158" y2="233.0" stroke="#d8ddd2" stroke-width="1"/>
<text x="76" y="238.0" text-anchor="end" font-family="Helvetica, Arial, sans-serif" font-size="12" fill="#70757a">16.0M</text>
<line x1="88" y1="188.8" x2="1158" y2="188.8" stroke="#d8ddd2" stroke-width="1"/>
<text x="76" y="193.8" text-anchor="end" font-family="Helvetica, Arial, sans-serif" font-size="12" fill="#70757a">16.2M</text>
<line x1="88" y1="742.0" x2="1158" y2="742.0" stroke="#d8ddd2" stroke-width="1"/>
<text x="76" y="747.0" text-anchor="end" font-family="Helvetica, Arial, sans-serif" font-size="12" fill="#70757a">0</text>
<line x1="88" y1="680.9" x2="1158" y2="680.9" stroke="#d8ddd2" stroke-width="1"/>
<text x="76" y="685.9" text-anchor="end" font-family="Helvetica, Arial, sans-serif" font-size="12" fill="#70757a">100.0k</text>
<line x1="88" y1="619.9" x2="1158" y2="619.9" stroke="#d8ddd2" stroke-width="1"/>
<text x="76" y="624.9" text-anchor="end" font-family="Helvetica, Arial, sans-serif" font-size="12" fill="#70757a">200.0k</text>
<line x1="88" y1="558.8" x2="1158" y2="558.8" stroke="#d8ddd2" stroke-width="1"/>
<text x="76" y="563.8" text-anchor="end" font-family="Helvetica, Arial, sans-serif" font-size="12" fill="#70757a">300.0k</text>
<line x1="88" y1="497.8" x2="1158" y2="497.8" stroke="#d8ddd2" stroke-width="1"/>
<text x="76" y="502.8" text-anchor="end" font-family="Helvetica, Arial, sans-serif" font-size="12" fill="#70757a">400.0k</text>
<line x1="88" y1="1069.7" x2="1158" y2="1069.7" stroke="#d8ddd2" stroke-width="1"/>
<text x="76" y="1074.7" text-anchor="end" font-family="Helvetica, Arial, sans-serif" font-size="12" fill="#70757a">0</text>
<line x1="88" y1="989.5" x2="1158" y2="989.5" stroke="#d8ddd2" stroke-width="1"/>
<text x="76" y="994.5" text-anchor="end" font-family="Helvetica, Arial, sans-serif" font-size="12" fill="#70757a">50.0k</text>
<line x1="88" y1="909.3" x2="1158" y2="909.3" stroke="#d8ddd2" stroke-width="1"/>
<text x="76" y="914.3" text-anchor="end" font-family="Helvetica, Arial, sans-serif" font-size="12" fill="#70757a">100.0k</text>
<line x1="88" y1="829.1" x2="1158" y2="829.1" stroke="#d8ddd2" stroke-width="1"/>
<text x="76" y="834.1" text-anchor="end" font-family="Helvetica, Arial, sans-serif" font-size="12" fill="#70757a">150.0k</text>
<line x1="88" y1="1384.6" x2="1158" y2="1384.6" stroke="#d8ddd2" stroke-width="1"/>
<text x="76" y="1389.6" text-anchor="end" font-family="Helvetica, Arial, sans-serif" font-size="12" fill="#70757a">144</text>
<line x1="88" y1="1323.4" x2="1158" y2="1323.4" stroke="#d8ddd2" stroke-width="1"/>
<text x="76" y="1328.4" text-anchor="end" font-family="Helvetica, Arial, sans-serif" font-size="12" fill="#70757a">146</text>
<line x1="88" y1="1262.3" x2="1158" y2="1262.3" stroke="#d8ddd2" stroke-width="1"/>
<text x="76" y="1267.3" text-anchor="end" font-family="Helvetica, Arial, sans-serif" font-size="12" fill="#70757a">148</text>
<line x1="88" y1="1201.1" x2="1158" y2="1201.1" stroke="#d8ddd2" stroke-width="1"/>
<text x="76" y="1206.1" text-anchor="end" font-family="Helvetica, Arial, sans-serif" font-size="12" fill="#70757a">150</text>
<line x1="88" y1="1140.0" x2="1158" y2="1140.0" stroke="#d8ddd2" stroke-width="1"/>
<text x="76" y="1145.0" text-anchor="end" font-family="Helvetica, Arial, sans-serif" font-size="12" fill="#70757a">152</text>
<line x1="88" y1="1697.7" x2="1158" y2="1697.7" stroke="#d8ddd2" stroke-width="1"/>
<text x="76" y="1702.7" text-anchor="end" font-family="Helvetica, Arial, sans-serif" font-size="12" fill="#70757a">745.0k</text>
<line x1="88" y1="1654.0" x2="1158" y2="1654.0" stroke="#d8ddd2" stroke-width="1"/>
<text x="76" y="1659.0" text-anchor="end" font-family="Helvetica, Arial, sans-serif" font-size="12" fill="#70757a">750.0k</text>
<line x1="88" y1="1610.3" x2="1158" y2="1610.3" stroke="#d8ddd2" stroke-width="1"/>
<text x="76" y="1615.3" text-anchor="end" font-family="Helvetica, Arial, sans-serif" font-size="12" fill="#70757a">755.0k</text>
<line x1="88" y1="1566.6" x2="1158" y2="1566.6" stroke="#d8ddd2" stroke-width="1"/>
<text x="76" y="1571.6" text-anchor="end" font-family="Helvetica, Arial, sans-serif" font-size="12" fill="#70757a">760.0k</text>
<line x1="88" y1="1522.8" x2="1158" y2="1522.8" stroke="#d8ddd2" stroke-width="1"/>
<text x="76" y="1527.8" text-anchor="end" font-family="Helvetica, Arial, sans-serif" font-size="12" fill="#70757a">765.0k</text>
<line x1="88" y1="1479.1" x2="1158" y2="1479.1" stroke="#d8ddd2" stroke-width="1"/>
<text x="76" y="1484.1" text-anchor="end" font-family="Helvetica, Arial, sans-serif" font-size="12" fill="#70757a">770.0k</text>
<line x1="88" y1="1435.4" x2="1158" y2="1435.4" stroke="#d8ddd2" stroke-width="1"/>
<text x="76" y="1440.4" text-anchor="end" font-family="Helvetica, Arial, sans-serif" font-size="12" fill="#70757a">775.0k</text>
<path d="M 88.0 397.0 L 159.3 422.0 L 230.7 298.3 L 302.0 288.1 L 373.3 374.4 L 444.7 350.2 L 516.0 329.4 L 587.3 312.6 L 658.7 294.9 L 730.0 279.5 L 801.3 264.1 L 872.7 248.9 L 944.0 225.5 L 1015.3 213.2 L 1086.7 211.3 L 1158.0 208.0" fill="none" stroke="#1f4e79" stroke-width="4" stroke-linecap="round" stroke-linejoin="round"/>
<circle cx="88.0" cy="397.0" r="5" fill="#1f4e79"/>
<circle cx="159.3" cy="422.0" r="5" fill="#1f4e79"/>
<circle cx="230.7" cy="298.3" r="5" fill="#1f4e79"/>
<circle cx="302.0" cy="288.1" r="5" fill="#1f4e79"/>
<circle cx="373.3" cy="374.4" r="5" fill="#1f4e79"/>
<circle cx="444.7" cy="350.2" r="5" fill="#1f4e79"/>
<circle cx="516.0" cy="329.4" r="5" fill="#1f4e79"/>
<circle cx="587.3" cy="312.6" r="5" fill="#1f4e79"/>
<circle cx="658.7" cy="294.9" r="5" fill="#1f4e79"/>
<circle cx="730.0" cy="279.5" r="5" fill="#1f4e79"/>
<circle cx="801.3" cy="264.1" r="5" fill="#1f4e79"/>
<circle cx="872.7" cy="248.9" r="5" fill="#1f4e79"/>
<circle cx="944.0" cy="225.5" r="5" fill="#1f4e79"/>
<circle cx="1015.3" cy="213.2" r="5" fill="#1f4e79"/>
<circle cx="1086.7" cy="211.3" r="5" fill="#1f4e79"/>
<circle cx="1158.0" cy="208.0" r="7" fill="#1f4e79"/>
<text x="1168.0" y="198.0" font-family="Helvetica, Arial, sans-serif" font-size="13" font-weight="700" fill="#1f4e79">16,113,166</text>
<rect x="71.0" y="532.1" width="34" height="209.9" rx="4" fill="#2a9d8f"/>
<circle cx="88.0" cy="526.0" r="5" fill="#b3472c"/>
<rect x="142.3" y="514.0" width="34" height="228.0" rx="4" fill="#2a9d8f"/>
<circle cx="159.3" cy="526.0" r="5" fill="#b3472c"/>
<rect x="213.7" y="715.9" width="34" height="26.1" rx="4" fill="#2a9d8f"/>
<circle cx="230.7" cy="705.9" r="5" fill="#b3472c"/>
<rect x="285.0" y="715.5" width="34" height="26.5" rx="4" fill="#2a9d8f"/>
<circle cx="302.0" cy="705.5" r="5" fill="#b3472c"/>
<rect x="356.3" y="706.3" width="34" height="35.7" rx="4" fill="#2a9d8f"/>
<rect x="427.7" y="688.5" width="34" height="53.5" rx="4" fill="#2a9d8f"/>
<rect x="499.0" y="692.0" width="34" height="50.0" rx="4" fill="#2a9d8f"/>
<rect x="570.3" y="707.8" width="34" height="34.2" rx="4" fill="#2a9d8f"/>
<rect x="641.7" y="694.4" width="34" height="47.6" rx="4" fill="#2a9d8f"/>
<rect x="713.0" y="705.3" width="34" height="36.7" rx="4" fill="#2a9d8f"/>
<rect x="784.3" y="699.4" width="34" height="42.6" rx="4" fill="#2a9d8f"/>
<rect x="855.7" y="700.0" width="34" height="42.0" rx="4" fill="#2a9d8f"/>
<rect x="927.0" y="678.7" width="34" height="63.3" rx="4" fill="#2a9d8f"/>
<rect x="998.3" y="708.0" width="34" height="34.0" rx="4" fill="#2a9d8f"/>
<rect x="1069.7" y="736.5" width="34" height="5.5" rx="4" fill="#2a9d8f"/>
<rect x="1141.0" y="733.4" width="34" height="8.6" rx="4" fill="#2a9d8f"/>
<path d="M 88.0 1048.0 L 159.3 1024.6 L 230.7 1019.1 L 302.0 1005.2 L 373.3 972.1 L 444.7 941.5 L 516.0 926.9 L 587.3 908.3 L 658.7 891.9 L 730.0 880.4 L 801.3 867.9 L 872.7 856.8 L 944.0 843.5 L 1015.3 836.7 L 1086.7 835.5 L 1158.0 834.0" fill="none" stroke="#6f5499" stroke-width="4" stroke-linecap="round" stroke-linejoin="round"/>
<circle cx="88.0" cy="1048.0" r="5" fill="#6f5499"/>
<circle cx="159.3" cy="1024.6" r="5" fill="#6f5499"/>
<circle cx="230.7" cy="1019.1" r="5" fill="#6f5499"/>
<circle cx="302.0" cy="1005.2" r="5" fill="#6f5499"/>
<circle cx="373.3" cy="972.1" r="5" fill="#6f5499"/>
<circle cx="444.7" cy="941.5" r="5" fill="#6f5499"/>
<circle cx="516.0" cy="926.9" r="5" fill="#6f5499"/>
<circle cx="587.3" cy="908.3" r="5" fill="#6f5499"/>
<circle cx="658.7" cy="891.9" r="5" fill="#6f5499"/>
<circle cx="730.0" cy="880.4" r="5" fill="#6f5499"/>
<circle cx="801.3" cy="867.9" r="5" fill="#6f5499"/>
<circle cx="872.7" cy="856.8" r="5" fill="#6f5499"/>
<circle cx="944.0" cy="843.5" r="5" fill="#6f5499"/>
<circle cx="1015.3" cy="836.7" r="5" fill="#6f5499"/>
<circle cx="1086.7" cy="835.5" r="5" fill="#6f5499"/>
<circle cx="1158.0" cy="834.0" r="7" fill="#6f5499"/>
<text x="1168.0" y="824.0" font-family="Helvetica, Arial, sans-serif" font-size="13" font-weight="700" fill="#6f5499">146,928</text>
<path d="M 88.0 1354.0 L 159.3 1292.9 L 230.7 1262.3 L 302.0 1262.3 L 373.3 1262.3 L 444.7 1231.7 L 516.0 1201.1 L 587.3 1201.1 L 658.7 1170.6 L 730.0 1170.6 L 801.3 1170.6 L 872.7 1170.6 L 944.0 1140.0 L 1015.3 1140.0 L 1086.7 1140.0 L 1158.0 1140.0" fill="none" stroke="#a6611a" stroke-width="4" stroke-linecap="round" stroke-linejoin="round"/>
<circle cx="88.0" cy="1354.0" r="5" fill="#a6611a"/>
<circle cx="159.3" cy="1292.9" r="5" fill="#a6611a"/>
<circle cx="230.7" cy="1262.3" r="5" fill="#a6611a"/>
<circle cx="302.0" cy="1262.3" r="5" fill="#a6611a"/>
<circle cx="373.3" cy="1262.3" r="5" fill="#a6611a"/>
<circle cx="444.7" cy="1231.7" r="5" fill="#a6611a"/>
<circle cx="516.0" cy="1201.1" r="5" fill="#a6611a"/>
<circle cx="587.3" cy="1201.1" r="5" fill="#a6611a"/>
<circle cx="658.7" cy="1170.6" r="5" fill="#a6611a"/>
<circle cx="730.0" cy="1170.6" r="5" fill="#a6611a"/>
<circle cx="801.3" cy="1170.6" r="5" fill="#a6611a"/>
<circle cx="872.7" cy="1170.6" r="5" fill="#a6611a"/>
<circle cx="944.0" cy="1140.0" r="5" fill="#a6611a"/>
<circle cx="1015.3" cy="1140.0" r="5" fill="#a6611a"/>
<circle cx="1086.7" cy="1140.0" r="5" fill="#a6611a"/>
<circle cx="1158.0" cy="1140.0" r="7" fill="#a6611a"/>
<text x="1168.0" y="1130.0" font-family="Helvetica, Arial, sans-serif" font-size="13" font-weight="700" fill="#a6611a">152</text>
<path d="M 302.0 1660.0 L 373.3 1655.2 L 444.7 1628.5 L 516.0 1614.2 L 587.3 1595.8 L 658.7 1565.1 L 730.0 1536.1 L 801.3 1513.1 L 872.7 1492.1 L 944.0 1462.5 L 1015.3 1450.9 L 1086.7 1448.7 L 1158.0 1446.0" fill="none" stroke="#2f6b3c" stroke-width="4" stroke-linecap="round" stroke-linejoin="round"/>
<circle cx="302.0" cy="1660.0" r="5" fill="#2f6b3c"/>
<circle cx="373.3" cy="1655.2" r="5" fill="#2f6b3c"/>
<circle cx="444.7" cy="1628.5" r="5" fill="#2f6b3c"/>
<circle cx="516.0" cy="1614.2" r="5" fill="#2f6b3c"/>
<circle cx="587.3" cy="1595.8" r="5" fill="#2f6b3c"/>
<circle cx="658.7" cy="1565.1" r="5" fill="#2f6b3c"/>
<circle cx="730.0" cy="1536.1" r="5" fill="#2f6b3c"/>
<circle cx="801.3" cy="1513.1" r="5" fill="#2f6b3c"/>
<circle cx="872.7" cy="1492.1" r="5" fill="#2f6b3c"/>
<circle cx="944.0" cy="1462.5" r="5" fill="#2f6b3c"/>
<circle cx="1015.3" cy="1450.9" r="5" fill="#2f6b3c"/>
<circle cx="1086.7" cy="1448.7" r="5" fill="#2f6b3c"/>
<circle cx="1158.0" cy="1446.0" r="7" fill="#2f6b3c"/>
<text x="1168.0" y="1436.0" font-family="Helvetica, Arial, sans-serif" font-size="13" font-weight="700" fill="#2f6b3c">773,785</text>
<text x="88.0" y="1684" text-anchor="middle" font-family="Helvetica, Arial, sans-serif" font-size="12" fill="#70757a">06-24</text>
<text x="159.3" y="1684" text-anchor="middle" font-family="Helvetica, Arial, sans-serif" font-size="12" fill="#70757a">06-25</text>
<text x="230.7" y="1684" text-anchor="middle" font-family="Helvetica, Arial, sans-serif" font-size="12" fill="#70757a">06-29</text>
<text x="302.0" y="1684" text-anchor="middle" font-family="Helvetica, Arial, sans-serif" font-size="12" fill="#70757a">06-30</text>
<text x="373.3" y="1684" text-anchor="middle" font-family="Helvetica, Arial, sans-serif" font-size="12" fill="#70757a">07-01</text>
<text x="444.7" y="1684" text-anchor="middle" font-family="Helvetica, Arial, sans-serif" font-size="12" fill="#70757a">07-02</text>
<text x="516.0" y="1684" text-anchor="middle" font-family="Helvetica, Arial, sans-serif" font-size="12" fill="#70757a">07-03</text>
<text x="587.3" y="1684" text-anchor="middle" font-family="Helvetica, Arial, sans-serif" font-size="12" fill="#70757a">07-04</text>
<text x="658.7" y="1684" text-anchor="middle" font-family="Helvetica, Arial, sans-serif" font-size="12" fill="#70757a">07-05</text>
<text x="730.0" y="1684" text-anchor="middle" font-family="Helvetica, Arial, sans-serif" font-size="12" fill="#70757a">07-06</text>
<text x="801.3" y="1684" text-anchor="middle" font-family="Helvetica, Arial, sans-serif" font-size="12" fill="#70757a">07-07</text>
<text x="872.7" y="1684" text-anchor="middle" font-family="Helvetica, Arial, sans-serif" font-size="12" fill="#70757a">07-08</text>
<text x="944.0" y="1684" text-anchor="middle" font-family="Helvetica, Arial, sans-serif" font-size="12" fill="#70757a">07-09</text>
<text x="1015.3" y="1684" text-anchor="middle" font-family="Helvetica, Arial, sans-serif" font-size="12" fill="#70757a">07-10</text>
<text x="1086.7" y="1684" text-anchor="middle" font-family="Helvetica, Arial, sans-serif" font-size="12" fill="#70757a">07-14</text>
<text x="1158.0" y="1684" text-anchor="middle" font-family="Helvetica, Arial, sans-serif" font-size="12" fill="#70757a">07-15</text>
<line x1="60" y1="1704" x2="84" y2="1704" stroke="#1f4e79" stroke-width="4"/>
<text x="94" y="1709" font-family="Helvetica, Arial, sans-serif" font-size="13" fill="#202126">Edges in KB</text>
<line x1="280" y1="1704" x2="304" y2="1704" stroke="#6f5499" stroke-width="4"/>
<text x="314" y="1709" font-family="Helvetica, Arial, sans-serif" font-size="13" fill="#202126">Pending queue</text>
<line x1="520" y1="1704" x2="544" y2="1704" stroke="#a6611a" stroke-width="4"/>
<text x="554" y="1709" font-family="Helvetica, Arial, sans-serif" font-size="13" fill="#202126">Fully crawled entities</text>
<line x1="800" y1="1704" x2="824" y2="1704" stroke="#2f6b3c" stroke-width="4"/>
<text x="834" y="1709" font-family="Helvetica, Arial, sans-serif" font-size="13" fill="#202126">Entities in KB (total)</text>
<rect x="60" y="1721" width="20" height="20" rx="4" fill="#2a9d8f"/>
<text x="90" y="1737" font-family="Helvetica, Arial, sans-serif" font-size="13" fill="#202126">Daily positive relationship gain</text>
<circle cx="400" cy="1731" r="5" fill="#b3472c"/>
<text x="414" y="1737" font-family="Helvetica, Arial, sans-serif" font-size="13" fill="#202126">Day includes edge-count drops/resets</text>
</svg>
