<svg xmlns="http://www.w3.org/2000/svg" width="1200" height="1756" viewBox="0 0 1200 1756">
<rect width="100%" height="100%" fill="#f7f7f2"/>
<text x="60" y="54" font-family="Helvetica, Arial, sans-serif" font-size="28" font-weight="700" fill="#202126">ExplainRx crawl growth</text>
<text x="60" y="78" font-family="Helvetica, Arial, sans-serif" font-size="15" fill="#70757a">Source: shared Pi crawl via agnes@192.168.1.22</text>
<text x="60" y="100" font-family="Helvetica, Arial, sans-serif" font-size="15" fill="#70757a">Daily relationship count and daily positive relationship gain, starting 2026-06-24 because earlier days used older ingestion rules</text>
<rect x="88" y="118" width="1070" height="56" fill="#ffffff" rx="10"/>
<rect x="88" y="208" width="1070" height="214" fill="#ffffff" rx="10"/>
<rect x="88" y="514" width="1070" height="228" fill="#ffffff" rx="10"/>
<rect x="88" y="834" width="1070" height="214" fill="#ffffff" rx="10"/>
<rect x="88" y="1140" width="1070" height="214" fill="#ffffff" rx="10"/>
<rect x="88" y="1446" width="1070" height="214" fill="#ffffff" rx="10"/>
<text x="88" y="190" font-family="Helvetica, Arial, sans-serif" font-size="18" font-weight="700" fill="#202126">Edges in KB (relationships, end-of-day total)</text>
<text x="88" y="496" font-family="Helvetica, Arial, sans-serif" font-size="18" font-weight="700" fill="#202126">Daily positive relationship gain</text>
<text x="1158" y="496" text-anchor="end" font-family="Helvetica, Arial, sans-serif" font-size="13" font-weight="700" fill="#2a9d8f">recent 10 days · latest 189.2k / max 253.2k</text>
<text x="88" y="816" font-family="Helvetica, Arial, sans-serif" font-size="18" font-weight="700" fill="#202126">End-of-day pending queue</text>
<text x="88" y="1122" font-family="Helvetica, Arial, sans-serif" font-size="18" font-weight="700" fill="#202126">Entity page crawls exhausted</text>
<text x="88" y="1428" font-family="Helvetica, Arial, sans-serif" font-size="18" font-weight="700" fill="#202126">Entities in KB (total)</text>
<text x="106.0" y="140" font-family="Helvetica, Arial, sans-serif" font-size="12" font-weight="700" fill="#70757a">Latest day</text>
<text x="106.0" y="163" font-family="Helvetica, Arial, sans-serif" font-size="18" font-weight="700" fill="#202126">2026-07-21</text>
<line x1="302.0" y1="128" x2="302.0" y2="164" stroke="#d8ddd2" stroke-width="1"/>
<text x="320.0" y="140" font-family="Helvetica, Arial, sans-serif" font-size="12" font-weight="700" fill="#70757a">Entities in KB</text>
<text x="320.0" y="163" font-family="Helvetica, Arial, sans-serif" font-size="18" font-weight="700" fill="#202126">796,229</text>
<line x1="516.0" y1="128" x2="516.0" y2="164" stroke="#d8ddd2" stroke-width="1"/>
<text x="534.0" y="140" font-family="Helvetica, Arial, sans-serif" font-size="12" font-weight="700" fill="#70757a">Edges in KB</text>
<text x="534.0" y="163" font-family="Helvetica, Arial, sans-serif" font-size="18" font-weight="700" fill="#202126">16,478,280</text>
<line x1="730.0" y1="128" x2="730.0" y2="164" stroke="#d8ddd2" stroke-width="1"/>
<text x="748.0" y="140" font-family="Helvetica, Arial, sans-serif" font-size="12" font-weight="700" fill="#70757a">Positive gain</text>
<text x="748.0" y="163" font-family="Helvetica, Arial, sans-serif" font-size="18" font-weight="700" fill="#202126">189,232</text>
<line x1="944.0" y1="128" x2="944.0" y2="164" stroke="#d8ddd2" stroke-width="1"/>
<text x="962.0" y="140" font-family="Helvetica, Arial, sans-serif" font-size="12" font-weight="700" fill="#70757a">Fully crawled</text>
<text x="962.0" y="163" font-family="Helvetica, Arial, sans-serif" font-size="18" font-weight="700" fill="#202126">182</text>
<line x1="88" y1="445.0" x2="1158" y2="445.0" stroke="#d8ddd2" stroke-width="1"/>
<text x="76" y="450.0" text-anchor="end" font-family="Helvetica, Arial, sans-serif" font-size="12" fill="#70757a">15.0M</text>
<line x1="88" y1="364.8" x2="1158" y2="364.8" stroke="#d8ddd2" stroke-width="1"/>
<text x="76" y="369.8" text-anchor="end" font-family="Helvetica, Arial, sans-serif" font-size="12" fill="#70757a">15.5M</text>
<line x1="88" y1="284.7" x2="1158" y2="284.7" stroke="#d8ddd2" stroke-width="1"/>
<text x="76" y="289.7" text-anchor="end" font-family="Helvetica, Arial, sans-serif" font-size="12" fill="#70757a">16.0M</text>
<line x1="88" y1="204.5" x2="1158" y2="204.5" stroke="#d8ddd2" stroke-width="1"/>
<text x="76" y="209.5" text-anchor="end" font-family="Helvetica, Arial, sans-serif" font-size="12" fill="#70757a">16.5M</text>
<line x1="88" y1="742.0" x2="1158" y2="742.0" stroke="#d8ddd2" stroke-width="1"/>
<text x="76" y="747.0" text-anchor="end" font-family="Helvetica, Arial, sans-serif" font-size="12" fill="#70757a">0</text>
<line x1="88" y1="652.0" x2="1158" y2="652.0" stroke="#d8ddd2" stroke-width="1"/>
<text x="76" y="657.0" text-anchor="end" font-family="Helvetica, Arial, sans-serif" font-size="12" fill="#70757a">100.0k</text>
<line x1="88" y1="561.9" x2="1158" y2="561.9" stroke="#d8ddd2" stroke-width="1"/>
<text x="76" y="566.9" text-anchor="end" font-family="Helvetica, Arial, sans-serif" font-size="12" fill="#70757a">200.0k</text>
<line x1="88" y1="471.9" x2="1158" y2="471.9" stroke="#d8ddd2" stroke-width="1"/>
<text x="76" y="476.9" text-anchor="end" font-family="Helvetica, Arial, sans-serif" font-size="12" fill="#70757a">300.0k</text>
<line x1="88" y1="1060.7" x2="1158" y2="1060.7" stroke="#d8ddd2" stroke-width="1"/>
<text x="76" y="1065.7" text-anchor="end" font-family="Helvetica, Arial, sans-serif" font-size="12" fill="#70757a">0</text>
<line x1="88" y1="1013.6" x2="1158" y2="1013.6" stroke="#d8ddd2" stroke-width="1"/>
<text x="76" y="1018.6" text-anchor="end" font-family="Helvetica, Arial, sans-serif" font-size="12" fill="#70757a">50.0k</text>
<line x1="88" y1="966.5" x2="1158" y2="966.5" stroke="#d8ddd2" stroke-width="1"/>
<text x="76" y="971.5" text-anchor="end" font-family="Helvetica, Arial, sans-serif" font-size="12" fill="#70757a">100.0k</text>
<line x1="88" y1="919.3" x2="1158" y2="919.3" stroke="#d8ddd2" stroke-width="1"/>
<text x="76" y="924.3" text-anchor="end" font-family="Helvetica, Arial, sans-serif" font-size="12" fill="#70757a">150.0k</text>
<line x1="88" y1="872.2" x2="1158" y2="872.2" stroke="#d8ddd2" stroke-width="1"/>
<text x="76" y="877.2" text-anchor="end" font-family="Helvetica, Arial, sans-serif" font-size="12" fill="#70757a">200.0k</text>
<line x1="88" y1="825.1" x2="1158" y2="825.1" stroke="#d8ddd2" stroke-width="1"/>
<text x="76" y="830.1" text-anchor="end" font-family="Helvetica, Arial, sans-serif" font-size="12" fill="#70757a">250.0k</text>
<line x1="88" y1="1364.7" x2="1158" y2="1364.7" stroke="#d8ddd2" stroke-width="1"/>
<text x="76" y="1369.7" text-anchor="end" font-family="Helvetica, Arial, sans-serif" font-size="12" fill="#70757a">140</text>
<line x1="88" y1="1311.2" x2="1158" y2="1311.2" stroke="#d8ddd2" stroke-width="1"/>
<text x="76" y="1316.2" text-anchor="end" font-family="Helvetica, Arial, sans-serif" font-size="12" fill="#70757a">150</text>
<line x1="88" y1="1257.7" x2="1158" y2="1257.7" stroke="#d8ddd2" stroke-width="1"/>
<text x="76" y="1262.7" text-anchor="end" font-family="Helvetica, Arial, sans-serif" font-size="12" fill="#70757a">160</text>
<line x1="88" y1="1204.2" x2="1158" y2="1204.2" stroke="#d8ddd2" stroke-width="1"/>
<text x="76" y="1209.2" text-anchor="end" font-family="Helvetica, Arial, sans-serif" font-size="12" fill="#70757a">170</text>
<line x1="88" y1="1150.7" x2="1158" y2="1150.7" stroke="#d8ddd2" stroke-width="1"/>
<text x="76" y="1155.7" text-anchor="end" font-family="Helvetica, Arial, sans-serif" font-size="12" fill="#70757a">180</text>
<line x1="88" y1="1097.2" x2="1158" y2="1097.2" stroke="#d8ddd2" stroke-width="1"/>
<text x="76" y="1102.2" text-anchor="end" font-family="Helvetica, Arial, sans-serif" font-size="12" fill="#70757a">190</text>
<line x1="88" y1="1702.5" x2="1158" y2="1702.5" stroke="#d8ddd2" stroke-width="1"/>
<text x="76" y="1707.5" text-anchor="end" font-family="Helvetica, Arial, sans-serif" font-size="12" fill="#70757a">740.0k</text>
<line x1="88" y1="1656.9" x2="1158" y2="1656.9" stroke="#d8ddd2" stroke-width="1"/>
<text x="76" y="1661.9" text-anchor="end" font-family="Helvetica, Arial, sans-serif" font-size="12" fill="#70757a">750.0k</text>
<line x1="88" y1="1611.3" x2="1158" y2="1611.3" stroke="#d8ddd2" stroke-width="1"/>
<text x="76" y="1616.3" text-anchor="end" font-family="Helvetica, Arial, sans-serif" font-size="12" fill="#70757a">760.0k</text>
<line x1="88" y1="1565.6" x2="1158" y2="1565.6" stroke="#d8ddd2" stroke-width="1"/>
<text x="76" y="1570.6" text-anchor="end" font-family="Helvetica, Arial, sans-serif" font-size="12" fill="#70757a">770.0k</text>
<line x1="88" y1="1520.0" x2="1158" y2="1520.0" stroke="#d8ddd2" stroke-width="1"/>
<text x="76" y="1525.0" text-anchor="end" font-family="Helvetica, Arial, sans-serif" font-size="12" fill="#70757a">780.0k</text>
<line x1="88" y1="1474.4" x2="1158" y2="1474.4" stroke="#d8ddd2" stroke-width="1"/>
<text x="76" y="1479.4" text-anchor="end" font-family="Helvetica, Arial, sans-serif" font-size="12" fill="#70757a">790.0k</text>
<line x1="88" y1="1428.8" x2="1158" y2="1428.8" stroke="#d8ddd2" stroke-width="1"/>
<text x="76" y="1433.8" text-anchor="end" font-family="Helvetica, Arial, sans-serif" font-size="12" fill="#70757a">800.0k</text>
<path d="M 88.0 403.8 L 141.5 422.0 L 195.0 332.2 L 248.5 324.7 L 302.0 387.4 L 355.5 369.8 L 409.0 354.8 L 462.5 342.5 L 516.0 329.6 L 569.5 318.5 L 623.0 307.3 L 676.5 296.3 L 730.0 279.3 L 783.5 270.3 L 837.0 268.9 L 890.5 260.6 L 944.0 251.2 L 997.5 248.4 L 1051.0 219.9 L 1104.5 212.0 L 1158.0 208.0" fill="none" stroke="#1f4e79" stroke-width="4" stroke-linecap="round" stroke-linejoin="round"/>
<circle cx="88.0" cy="403.8" r="5" fill="#1f4e79"/>
<circle cx="141.5" cy="422.0" r="5" fill="#1f4e79"/>
<circle cx="195.0" cy="332.2" r="5" fill="#1f4e79"/>
<circle cx="248.5" cy="324.7" r="5" fill="#1f4e79"/>
<circle cx="302.0" cy="387.4" r="5" fill="#1f4e79"/>
<circle cx="355.5" cy="369.8" r="5" fill="#1f4e79"/>
<circle cx="409.0" cy="354.8" r="5" fill="#1f4e79"/>
<circle cx="462.5" cy="342.5" r="5" fill="#1f4e79"/>
<circle cx="516.0" cy="329.6" r="5" fill="#1f4e79"/>
<circle cx="569.5" cy="318.5" r="5" fill="#1f4e79"/>
<circle cx="623.0" cy="307.3" r="5" fill="#1f4e79"/>
<circle cx="676.5" cy="296.3" r="5" fill="#1f4e79"/>
<circle cx="730.0" cy="279.3" r="5" fill="#1f4e79"/>
<circle cx="783.5" cy="270.3" r="5" fill="#1f4e79"/>
<circle cx="837.0" cy="268.9" r="5" fill="#1f4e79"/>
<circle cx="890.5" cy="260.6" r="5" fill="#1f4e79"/>
<circle cx="944.0" cy="251.2" r="5" fill="#1f4e79"/>
<circle cx="997.5" cy="248.4" r="5" fill="#1f4e79"/>
<circle cx="1051.0" cy="219.9" r="5" fill="#1f4e79"/>
<circle cx="1104.5" cy="212.0" r="5" fill="#1f4e79"/>
<circle cx="1158.0" cy="208.0" r="7" fill="#1f4e79"/>
<text x="1168.0" y="198.0" font-family="Helvetica, Arial, sans-serif" font-size="13" font-weight="700" fill="#1f4e79">16,478,280</text>
<rect x="74.0" y="680.1" width="28" height="61.9" rx="4" fill="#2a9d8f" stroke="none" stroke-width="0"/>
<text x="88.0" y="670.1" text-anchor="middle" font-family="Helvetica, Arial, sans-serif" font-size="13" font-weight="700" fill="#2a9d8f">68.8k</text>
<rect x="192.9" y="648.7" width="28" height="93.3" rx="4" fill="#2a9d8f" stroke="none" stroke-width="0"/>
<text x="206.9" y="638.7" text-anchor="middle" font-family="Helvetica, Arial, sans-serif" font-size="13" font-weight="700" fill="#2a9d8f">103.6k</text>
<rect x="311.8" y="691.9" width="28" height="50.1" rx="4" fill="#2a9d8f" stroke="none" stroke-width="0"/>
<text x="325.8" y="681.9" text-anchor="middle" font-family="Helvetica, Arial, sans-serif" font-size="13" font-weight="700" fill="#2a9d8f">55.7k</text>
<rect x="430.7" y="733.9" width="28" height="8.1" rx="4" fill="#2a9d8f" stroke="none" stroke-width="0"/>
<text x="444.7" y="723.9" text-anchor="middle" font-family="Helvetica, Arial, sans-serif" font-size="13" font-weight="700" fill="#2a9d8f">9.0k</text>
<rect x="549.6" y="696.1" width="28" height="45.9" rx="4" fill="#2a9d8f" stroke="none" stroke-width="0"/>
<text x="563.6" y="686.1" text-anchor="middle" font-family="Helvetica, Arial, sans-serif" font-size="13" font-weight="700" fill="#2a9d8f">50.9k</text>
<rect x="668.4" y="689.3" width="28" height="52.7" rx="4" fill="#2a9d8f" stroke="none" stroke-width="0"/>
<text x="682.4" y="679.3" text-anchor="middle" font-family="Helvetica, Arial, sans-serif" font-size="13" font-weight="700" fill="#2a9d8f">58.5k</text>
<rect x="787.3" y="722.9" width="28" height="19.1" rx="4" fill="#2a9d8f" stroke="none" stroke-width="0"/>
<text x="801.3" y="712.9" text-anchor="middle" font-family="Helvetica, Arial, sans-serif" font-size="13" font-weight="700" fill="#2a9d8f">21.2k</text>
<circle cx="801.3" cy="712.9" r="5" fill="#b3472c"/>
<rect x="906.2" y="514.0" width="28" height="228.0" rx="4" fill="#2a9d8f" stroke="none" stroke-width="0"/>
<text x="920.2" y="530.0" text-anchor="middle" font-family="Helvetica, Arial, sans-serif" font-size="13" font-weight="700" fill="#2a9d8f">253.2k</text>
<circle cx="920.2" cy="526.0" r="5" fill="#b3472c"/>
<rect x="1025.1" y="700.4" width="28" height="41.6" rx="4" fill="#2a9d8f" stroke="none" stroke-width="0"/>
<text x="1039.1" y="690.4" text-anchor="middle" font-family="Helvetica, Arial, sans-serif" font-size="13" font-weight="700" fill="#2a9d8f">46.2k</text>
<circle cx="1039.1" cy="690.4" r="5" fill="#b3472c"/>
<rect x="1144.0" y="571.6" width="28" height="170.4" rx="4" fill="#2a9d8f" stroke="#1f6f66" stroke-width="2"/>
<text x="1158.0" y="561.6" text-anchor="middle" font-family="Helvetica, Arial, sans-serif" font-size="13" font-weight="700" fill="#2a9d8f">189,232</text>
<circle cx="1158.0" cy="561.6" r="5" fill="#b3472c"/>
<text x="88.0" y="764" text-anchor="middle" font-family="Helvetica, Arial, sans-serif" font-size="12" fill="#70757a">07-08</text>
<text x="206.9" y="764" text-anchor="middle" font-family="Helvetica, Arial, sans-serif" font-size="12" fill="#70757a">07-09</text>
<text x="325.8" y="764" text-anchor="middle" font-family="Helvetica, Arial, sans-serif" font-size="12" fill="#70757a">07-10</text>
<text x="444.7" y="764" text-anchor="middle" font-family="Helvetica, Arial, sans-serif" font-size="12" fill="#70757a">07-14</text>
<text x="563.6" y="764" text-anchor="middle" font-family="Helvetica, Arial, sans-serif" font-size="12" fill="#70757a">07-15</text>
<text x="682.4" y="764" text-anchor="middle" font-family="Helvetica, Arial, sans-serif" font-size="12" fill="#70757a">07-16</text>
<text x="801.3" y="764" text-anchor="middle" font-family="Helvetica, Arial, sans-serif" font-size="12" fill="#70757a">07-17</text>
<text x="920.2" y="764" text-anchor="middle" font-family="Helvetica, Arial, sans-serif" font-size="12" fill="#70757a">07-18</text>
<text x="1039.1" y="764" text-anchor="middle" font-family="Helvetica, Arial, sans-serif" font-size="12" fill="#70757a">07-19</text>
<text x="1158.0" y="764" text-anchor="middle" font-family="Helvetica, Arial, sans-serif" font-size="12" fill="#70757a">07-21</text>
<path d="M 88.0 1048.0 L 141.5 1034.2 L 195.0 1031.0 L 248.5 1022.8 L 302.0 1003.4 L 355.5 985.4 L 409.0 976.8 L 462.5 965.9 L 516.0 956.3 L 569.5 949.5 L 623.0 942.1 L 676.5 935.6 L 730.0 927.8 L 783.5 923.8 L 837.0 923.1 L 890.5 919.3 L 944.0 917.1 L 997.5 915.4 L 1051.0 871.7 L 1104.5 864.1 L 1158.0 834.0" fill="none" stroke="#6f5499" stroke-width="4" stroke-linecap="round" stroke-linejoin="round"/>
<circle cx="88.0" cy="1048.0" r="5" fill="#6f5499"/>
<circle cx="141.5" cy="1034.2" r="5" fill="#6f5499"/>
<circle cx="195.0" cy="1031.0" r="5" fill="#6f5499"/>
<circle cx="248.5" cy="1022.8" r="5" fill="#6f5499"/>
<circle cx="302.0" cy="1003.4" r="5" fill="#6f5499"/>
<circle cx="355.5" cy="985.4" r="5" fill="#6f5499"/>
<circle cx="409.0" cy="976.8" r="5" fill="#6f5499"/>
<circle cx="462.5" cy="965.9" r="5" fill="#6f5499"/>
<circle cx="516.0" cy="956.3" r="5" fill="#6f5499"/>
<circle cx="569.5" cy="949.5" r="5" fill="#6f5499"/>
<circle cx="623.0" cy="942.1" r="5" fill="#6f5499"/>
<circle cx="676.5" cy="935.6" r="5" fill="#6f5499"/>
<circle cx="730.0" cy="927.8" r="5" fill="#6f5499"/>
<circle cx="783.5" cy="923.8" r="5" fill="#6f5499"/>
<circle cx="837.0" cy="923.1" r="5" fill="#6f5499"/>
<circle cx="890.5" cy="919.3" r="5" fill="#6f5499"/>
<circle cx="944.0" cy="917.1" r="5" fill="#6f5499"/>
<circle cx="997.5" cy="915.4" r="5" fill="#6f5499"/>
<circle cx="1051.0" cy="871.7" r="5" fill="#6f5499"/>
<circle cx="1104.5" cy="864.1" r="5" fill="#6f5499"/>
<circle cx="1158.0" cy="834.0" r="7" fill="#6f5499"/>
<text x="1168.0" y="824.0" font-family="Helvetica, Arial, sans-serif" font-size="13" font-weight="700" fill="#6f5499">240,508</text>
<path d="M 88.0 1354.0 L 141.5 1343.3 L 195.0 1338.0 L 248.5 1338.0 L 302.0 1338.0 L 355.5 1332.6 L 409.0 1327.2 L 462.5 1327.2 L 516.0 1284.5 L 569.5 1284.5 L 623.0 1284.5 L 676.5 1284.5 L 730.0 1273.8 L 783.5 1273.8 L 837.0 1273.8 L 890.5 1273.8 L 944.0 1273.8 L 997.5 1273.8 L 1051.0 1241.7 L 1104.5 1214.9 L 1158.0 1140.0" fill="none" stroke="#a6611a" stroke-width="4" stroke-linecap="round" stroke-linejoin="round"/>
<circle cx="88.0" cy="1354.0" r="5" fill="#a6611a"/>
<circle cx="141.5" cy="1343.3" r="5" fill="#a6611a"/>
<circle cx="195.0" cy="1338.0" r="5" fill="#a6611a"/>
<circle cx="248.5" cy="1338.0" r="5" fill="#a6611a"/>
<circle cx="302.0" cy="1338.0" r="5" fill="#a6611a"/>
<circle cx="355.5" cy="1332.6" r="5" fill="#a6611a"/>
<circle cx="409.0" cy="1327.2" r="5" fill="#a6611a"/>
<circle cx="462.5" cy="1327.2" r="5" fill="#a6611a"/>
<circle cx="516.0" cy="1284.5" r="5" fill="#a6611a"/>
<circle cx="569.5" cy="1284.5" r="5" fill="#a6611a"/>
<circle cx="623.0" cy="1284.5" r="5" fill="#a6611a"/>
<circle cx="676.5" cy="1284.5" r="5" fill="#a6611a"/>
<circle cx="730.0" cy="1273.8" r="5" fill="#a6611a"/>
<circle cx="783.5" cy="1273.8" r="5" fill="#a6611a"/>
<circle cx="837.0" cy="1273.8" r="5" fill="#a6611a"/>
<circle cx="890.5" cy="1273.8" r="5" fill="#a6611a"/>
<circle cx="944.0" cy="1273.8" r="5" fill="#a6611a"/>
<circle cx="997.5" cy="1273.8" r="5" fill="#a6611a"/>
<circle cx="1051.0" cy="1241.7" r="5" fill="#a6611a"/>
<circle cx="1104.5" cy="1214.9" r="5" fill="#a6611a"/>
<circle cx="1158.0" cy="1140.0" r="7" fill="#a6611a"/>
<text x="1168.0" y="1130.0" font-family="Helvetica, Arial, sans-serif" font-size="13" font-weight="700" fill="#a6611a">182</text>
<path d="M 248.5 1660.0 L 302.0 1657.5 L 355.5 1643.6 L 409.0 1636.1 L 462.5 1626.5 L 516.0 1610.5 L 569.5 1595.4 L 623.0 1583.4 L 676.5 1572.4 L 730.0 1557.0 L 783.5 1550.9 L 837.0 1549.8 L 890.5 1544.6 L 944.0 1539.3 L 997.5 1537.2 L 1051.0 1493.9 L 1104.5 1486.0 L 1158.0 1446.0" fill="none" stroke="#2f6b3c" stroke-width="4" stroke-linecap="round" stroke-linejoin="round"/>
<circle cx="248.5" cy="1660.0" r="5" fill="#2f6b3c"/>
<circle cx="302.0" cy="1657.5" r="5" fill="#2f6b3c"/>
<circle cx="355.5" cy="1643.6" r="5" fill="#2f6b3c"/>
<circle cx="409.0" cy="1636.1" r="5" fill="#2f6b3c"/>
<circle cx="462.5" cy="1626.5" r="5" fill="#2f6b3c"/>
<circle cx="516.0" cy="1610.5" r="5" fill="#2f6b3c"/>
<circle cx="569.5" cy="1595.4" r="5" fill="#2f6b3c"/>
<circle cx="623.0" cy="1583.4" r="5" fill="#2f6b3c"/>
<circle cx="676.5" cy="1572.4" r="5" fill="#2f6b3c"/>
<circle cx="730.0" cy="1557.0" r="5" fill="#2f6b3c"/>
<circle cx="783.5" cy="1550.9" r="5" fill="#2f6b3c"/>
<circle cx="837.0" cy="1549.8" r="5" fill="#2f6b3c"/>
<circle cx="890.5" cy="1544.6" r="5" fill="#2f6b3c"/>
<circle cx="944.0" cy="1539.3" r="5" fill="#2f6b3c"/>
<circle cx="997.5" cy="1537.2" r="5" fill="#2f6b3c"/>
<circle cx="1051.0" cy="1493.9" r="5" fill="#2f6b3c"/>
<circle cx="1104.5" cy="1486.0" r="5" fill="#2f6b3c"/>
<circle cx="1158.0" cy="1446.0" r="7" fill="#2f6b3c"/>
<text x="1168.0" y="1436.0" font-family="Helvetica, Arial, sans-serif" font-size="13" font-weight="700" fill="#2f6b3c">796,229</text>
<text x="88.0" y="1684" text-anchor="middle" font-family="Helvetica, Arial, sans-serif" font-size="12" fill="#70757a">06-24</text>
<text x="141.5" y="1684" text-anchor="middle" font-family="Helvetica, Arial, sans-serif" font-size="12" fill="#70757a">06-25</text>
<text x="195.0" y="1684" text-anchor="middle" font-family="Helvetica, Arial, sans-serif" font-size="12" fill="#70757a">06-29</text>
<text x="248.5" y="1684" text-anchor="middle" font-family="Helvetica, Arial, sans-serif" font-size="12" fill="#70757a">06-30</text>
<text x="302.0" y="1684" text-anchor="middle" font-family="Helvetica, Arial, sans-serif" font-size="12" fill="#70757a">07-01</text>
<text x="355.5" y="1684" text-anchor="middle" font-family="Helvetica, Arial, sans-serif" font-size="12" fill="#70757a">07-02</text>
<text x="409.0" y="1684" text-anchor="middle" font-family="Helvetica, Arial, sans-serif" font-size="12" fill="#70757a">07-03</text>
<text x="462.5" y="1684" text-anchor="middle" font-family="Helvetica, Arial, sans-serif" font-size="12" fill="#70757a">07-04</text>
<text x="516.0" y="1684" text-anchor="middle" font-family="Helvetica, Arial, sans-serif" font-size="12" fill="#70757a">07-05</text>
<text x="569.5" y="1684" text-anchor="middle" font-family="Helvetica, Arial, sans-serif" font-size="12" fill="#70757a">07-06</text>
<text x="623.0" y="1684" text-anchor="middle" font-family="Helvetica, Arial, sans-serif" font-size="12" fill="#70757a">07-07</text>
<text x="676.5" y="1684" text-anchor="middle" font-family="Helvetica, Arial, sans-serif" font-size="12" fill="#70757a">07-08</text>
<text x="730.0" y="1684" text-anchor="middle" font-family="Helvetica, Arial, sans-serif" font-size="12" fill="#70757a">07-09</text>
<text x="783.5" y="1684" text-anchor="middle" font-family="Helvetica, Arial, sans-serif" font-size="12" fill="#70757a">07-10</text>
<text x="837.0" y="1684" text-anchor="middle" font-family="Helvetica, Arial, sans-serif" font-size="12" fill="#70757a">07-14</text>
<text x="890.5" y="1684" text-anchor="middle" font-family="Helvetica, Arial, sans-serif" font-size="12" fill="#70757a">07-15</text>
<text x="944.0" y="1684" text-anchor="middle" font-family="Helvetica, Arial, sans-serif" font-size="12" fill="#70757a">07-16</text>
<text x="997.5" y="1684" text-anchor="middle" font-family="Helvetica, Arial, sans-serif" font-size="12" fill="#70757a">07-17</text>
<text x="1051.0" y="1684" text-anchor="middle" font-family="Helvetica, Arial, sans-serif" font-size="12" fill="#70757a">07-18</text>
<text x="1104.5" y="1684" text-anchor="middle" font-family="Helvetica, Arial, sans-serif" font-size="12" fill="#70757a">07-19</text>
<text x="1158.0" y="1684" text-anchor="middle" font-family="Helvetica, Arial, sans-serif" font-size="12" fill="#70757a">07-21</text>
<line x1="60" y1="1704" x2="84" y2="1704" stroke="#1f4e79" stroke-width="4"/>
<text x="94" y="1709" font-family="Helvetica, Arial, sans-serif" font-size="13" fill="#202126">Edges in KB</text>
<line x1="280" y1="1704" x2="304" y2="1704" stroke="#6f5499" stroke-width="4"/>
<text x="314" y="1709" font-family="Helvetica, Arial, sans-serif" font-size="13" fill="#202126">Pending queue</text>
<line x1="520" y1="1704" x2="544" y2="1704" stroke="#a6611a" stroke-width="4"/>
<text x="554" y="1709" font-family="Helvetica, Arial, sans-serif" font-size="13" fill="#202126">Entity page crawls exhausted</text>
<line x1="800" y1="1704" x2="824" y2="1704" stroke="#2f6b3c" stroke-width="4"/>
<text x="834" y="1709" font-family="Helvetica, Arial, sans-serif" font-size="13" fill="#202126">Entities in KB (total)</text>
<rect x="60" y="1721" width="20" height="20" rx="4" fill="#2a9d8f"/>
<text x="90" y="1737" font-family="Helvetica, Arial, sans-serif" font-size="13" fill="#202126">Daily positive relationship gain</text>
<circle cx="400" cy="1731" r="5" fill="#b3472c"/>
<text x="414" y="1737" font-family="Helvetica, Arial, sans-serif" font-size="13" fill="#202126">Day includes edge-count drops/resets</text>
</svg>
