<svg xmlns="http://www.w3.org/2000/svg" width="1200" height="1664" viewBox="0 0 1200 1664">
<rect width="100%" height="100%" fill="#f7f7f2"/>
<text x="60" y="54" font-family="Helvetica, Arial, sans-serif" font-size="28" font-weight="700" fill="#202126">ExplainRx crawl growth</text>
<text x="60" y="78" font-family="Helvetica, Arial, sans-serif" font-size="15" fill="#70757a">Source: shared Pi crawl via agnes@192.168.1.21</text>
<text x="60" y="100" font-family="Helvetica, Arial, sans-serif" font-size="15" fill="#70757a">Daily relationship count and daily positive relationship gain, starting None because earlier days used older ingestion rules</text>
<rect x="88" y="118" width="1070" height="214" fill="#ffffff" rx="10"/>
<rect x="88" y="424" width="1070" height="228" fill="#ffffff" rx="10"/>
<rect x="88" y="744" width="1070" height="214" fill="#ffffff" rx="10"/>
<rect x="88" y="1050" width="1070" height="214" fill="#ffffff" rx="10"/>
<rect x="88" y="1356" width="1070" height="214" fill="#ffffff" rx="10"/>
<text x="88" y="100" font-family="Helvetica, Arial, sans-serif" font-size="18" font-weight="700" fill="#202126">Edges in KB (relationships, end-of-day total)</text>
<text x="88" y="406" font-family="Helvetica, Arial, sans-serif" font-size="18" font-weight="700" fill="#202126">Daily positive relationship gain</text>
<text x="88" y="726" font-family="Helvetica, Arial, sans-serif" font-size="18" font-weight="700" fill="#202126">End-of-day pending queue</text>
<text x="88" y="1032" font-family="Helvetica, Arial, sans-serif" font-size="18" font-weight="700" fill="#202126">Entities completed (all pages exhausted)</text>
<text x="88" y="1338" font-family="Helvetica, Arial, sans-serif" font-size="18" font-weight="700" fill="#202126">Entities in KB (total)</text>
<line x1="88" y1="332.4" x2="1158" y2="332.4" stroke="#d8ddd2" stroke-width="1"/>
<text x="76" y="337.4" text-anchor="end" font-family="Helvetica, Arial, sans-serif" font-size="12" fill="#70757a">6.0M</text>
<line x1="88" y1="288.4" x2="1158" y2="288.4" stroke="#d8ddd2" stroke-width="1"/>
<text x="76" y="293.4" text-anchor="end" font-family="Helvetica, Arial, sans-serif" font-size="12" fill="#70757a">8.0M</text>
<line x1="88" y1="244.5" x2="1158" y2="244.5" stroke="#d8ddd2" stroke-width="1"/>
<text x="76" y="249.5" text-anchor="end" font-family="Helvetica, Arial, sans-serif" font-size="12" fill="#70757a">10.0M</text>
<line x1="88" y1="200.5" x2="1158" y2="200.5" stroke="#d8ddd2" stroke-width="1"/>
<text x="76" y="205.5" text-anchor="end" font-family="Helvetica, Arial, sans-serif" font-size="12" fill="#70757a">12.0M</text>
<line x1="88" y1="156.5" x2="1158" y2="156.5" stroke="#d8ddd2" stroke-width="1"/>
<text x="76" y="161.5" text-anchor="end" font-family="Helvetica, Arial, sans-serif" font-size="12" fill="#70757a">14.0M</text>
<line x1="88" y1="112.5" x2="1158" y2="112.5" stroke="#d8ddd2" stroke-width="1"/>
<text x="76" y="117.5" text-anchor="end" font-family="Helvetica, Arial, sans-serif" font-size="12" fill="#70757a">16.0M</text>
<line x1="88" y1="652.0" x2="1158" y2="652.0" stroke="#d8ddd2" stroke-width="1"/>
<text x="76" y="657.0" text-anchor="end" font-family="Helvetica, Arial, sans-serif" font-size="12" fill="#70757a">0</text>
<line x1="88" y1="541.7" x2="1158" y2="541.7" stroke="#d8ddd2" stroke-width="1"/>
<text x="76" y="546.7" text-anchor="end" font-family="Helvetica, Arial, sans-serif" font-size="12" fill="#70757a">2.0M</text>
<line x1="88" y1="431.3" x2="1158" y2="431.3" stroke="#d8ddd2" stroke-width="1"/>
<text x="76" y="436.3" text-anchor="end" font-family="Helvetica, Arial, sans-serif" font-size="12" fill="#70757a">4.0M</text>
<line x1="88" y1="321.0" x2="1158" y2="321.0" stroke="#d8ddd2" stroke-width="1"/>
<text x="76" y="326.0" text-anchor="end" font-family="Helvetica, Arial, sans-serif" font-size="12" fill="#70757a">6.0M</text>
<line x1="88" y1="958.4" x2="1158" y2="958.4" stroke="#d8ddd2" stroke-width="1"/>
<text x="76" y="963.4" text-anchor="end" font-family="Helvetica, Arial, sans-serif" font-size="12" fill="#70757a">0</text>
<line x1="88" y1="876.6" x2="1158" y2="876.6" stroke="#d8ddd2" stroke-width="1"/>
<text x="76" y="881.6" text-anchor="end" font-family="Helvetica, Arial, sans-serif" font-size="12" fill="#70757a">500.0k</text>
<line x1="88" y1="794.8" x2="1158" y2="794.8" stroke="#d8ddd2" stroke-width="1"/>
<text x="76" y="799.8" text-anchor="end" font-family="Helvetica, Arial, sans-serif" font-size="12" fill="#70757a">1.0M</text>
<line x1="88" y1="713.0" x2="1158" y2="713.0" stroke="#d8ddd2" stroke-width="1"/>
<text x="76" y="718.0" text-anchor="end" font-family="Helvetica, Arial, sans-serif" font-size="12" fill="#70757a">1.5M</text>
<line x1="88" y1="1265.0" x2="1158" y2="1265.0" stroke="#d8ddd2" stroke-width="1"/>
<text x="76" y="1270.0" text-anchor="end" font-family="Helvetica, Arial, sans-serif" font-size="12" fill="#70757a">0</text>
<line x1="88" y1="1216.3" x2="1158" y2="1216.3" stroke="#d8ddd2" stroke-width="1"/>
<text x="76" y="1221.3" text-anchor="end" font-family="Helvetica, Arial, sans-serif" font-size="12" fill="#70757a">50</text>
<line x1="88" y1="1167.7" x2="1158" y2="1167.7" stroke="#d8ddd2" stroke-width="1"/>
<text x="76" y="1172.7" text-anchor="end" font-family="Helvetica, Arial, sans-serif" font-size="12" fill="#70757a">100</text>
<line x1="88" y1="1119.1" x2="1158" y2="1119.1" stroke="#d8ddd2" stroke-width="1"/>
<text x="76" y="1124.1" text-anchor="end" font-family="Helvetica, Arial, sans-serif" font-size="12" fill="#70757a">150</text>
<line x1="88" y1="1070.4" x2="1158" y2="1070.4" stroke="#d8ddd2" stroke-width="1"/>
<text x="76" y="1075.4" text-anchor="end" font-family="Helvetica, Arial, sans-serif" font-size="12" fill="#70757a">200</text>
<line x1="88" y1="1021.8" x2="1158" y2="1021.8" stroke="#d8ddd2" stroke-width="1"/>
<text x="76" y="1026.8" text-anchor="end" font-family="Helvetica, Arial, sans-serif" font-size="12" fill="#70757a">250</text>
<line x1="88" y1="1588.9" x2="1158" y2="1588.9" stroke="#d8ddd2" stroke-width="1"/>
<text x="76" y="1593.9" text-anchor="end" font-family="Helvetica, Arial, sans-serif" font-size="12" fill="#70757a">749.0k</text>
<line x1="88" y1="1528.8" x2="1158" y2="1528.8" stroke="#d8ddd2" stroke-width="1"/>
<text x="76" y="1533.8" text-anchor="end" font-family="Helvetica, Arial, sans-serif" font-size="12" fill="#70757a">750.0k</text>
<line x1="88" y1="1468.6" x2="1158" y2="1468.6" stroke="#d8ddd2" stroke-width="1"/>
<text x="76" y="1473.6" text-anchor="end" font-family="Helvetica, Arial, sans-serif" font-size="12" fill="#70757a">751.0k</text>
<line x1="88" y1="1408.5" x2="1158" y2="1408.5" stroke="#d8ddd2" stroke-width="1"/>
<text x="76" y="1413.5" text-anchor="end" font-family="Helvetica, Arial, sans-serif" font-size="12" fill="#70757a">752.0k</text>
<line x1="88" y1="1348.4" x2="1158" y2="1348.4" stroke="#d8ddd2" stroke-width="1"/>
<text x="76" y="1353.4" text-anchor="end" font-family="Helvetica, Arial, sans-serif" font-size="12" fill="#70757a">753.0k</text>
<path d="M 88.0 332.0 L 177.2 241.1 L 266.3 159.5 L 355.5 154.5 L 444.7 152.3 L 533.8 148.1 L 623.0 135.5 L 712.2 128.8 L 801.3 131.3 L 890.5 119.0 L 979.7 118.0 L 1068.8 126.6 L 1158.0 124.2" fill="none" stroke="#1f4e79" stroke-width="4" stroke-linecap="round" stroke-linejoin="round"/>
<circle cx="88.0" cy="332.0" r="5" fill="#1f4e79"/>
<circle cx="177.2" cy="241.1" r="5" fill="#1f4e79"/>
<circle cx="266.3" cy="159.5" r="5" fill="#1f4e79"/>
<circle cx="355.5" cy="154.5" r="5" fill="#1f4e79"/>
<circle cx="444.7" cy="152.3" r="5" fill="#1f4e79"/>
<circle cx="533.8" cy="148.1" r="5" fill="#1f4e79"/>
<circle cx="623.0" cy="135.5" r="5" fill="#1f4e79"/>
<circle cx="712.2" cy="128.8" r="5" fill="#1f4e79"/>
<circle cx="801.3" cy="131.3" r="5" fill="#1f4e79"/>
<circle cx="890.5" cy="119.0" r="5" fill="#1f4e79"/>
<circle cx="979.7" cy="118.0" r="5" fill="#1f4e79"/>
<circle cx="1068.8" cy="126.6" r="5" fill="#1f4e79"/>
<circle cx="1158.0" cy="124.2" r="7" fill="#1f4e79"/>
<text x="1168.0" y="114.2" font-family="Helvetica, Arial, sans-serif" font-size="13" font-weight="700" fill="#1f4e79">15,466,149</text>
<rect x="71.0" y="583.8" width="34" height="68.2" rx="4" fill="#2a9d8f"/>
<rect x="160.2" y="424.0" width="34" height="228.0" rx="4" fill="#2a9d8f"/>
<rect x="249.3" y="447.5" width="34" height="204.5" rx="4" fill="#2a9d8f"/>
<rect x="338.5" y="639.5" width="34" height="12.5" rx="4" fill="#2a9d8f"/>
<rect x="427.7" y="646.5" width="34" height="5.5" rx="4" fill="#2a9d8f"/>
<rect x="516.8" y="641.8" width="34" height="10.2" rx="4" fill="#2a9d8f"/>
<rect x="606.0" y="620.3" width="34" height="31.7" rx="4" fill="#2a9d8f"/>
<rect x="695.2" y="633.0" width="34" height="19.0" rx="4" fill="#2a9d8f"/>
<circle cx="712.2" cy="623.0" r="5" fill="#b3472c"/>
<rect x="784.3" y="631.4" width="34" height="20.6" rx="4" fill="#2a9d8f"/>
<circle cx="801.3" cy="621.4" r="5" fill="#b3472c"/>
<rect x="873.5" y="649.6" width="34" height="2.4" rx="4" fill="#2a9d8f"/>
<circle cx="890.5" cy="639.6" r="5" fill="#b3472c"/>
<rect x="962.7" y="649.6" width="34" height="2.4" rx="4" fill="#2a9d8f"/>
<circle cx="979.7" cy="639.6" r="5" fill="#b3472c"/>
<rect x="1051.8" y="648.8" width="34" height="3.2" rx="4" fill="#2a9d8f"/>
<rect x="1141.0" y="647.3" width="34" height="4.7" rx="4" fill="#2a9d8f"/>
<path d="M 88.0 952.8 L 177.2 869.4 L 266.3 768.6 L 355.5 747.4 L 444.7 745.5 L 533.8 744.0 L 623.0 958.0 L 712.2 956.2 L 801.3 953.8 L 890.5 953.2 L 979.7 951.8 L 1068.8 948.4 L 1158.0 945.4" fill="none" stroke="#6f5499" stroke-width="4" stroke-linecap="round" stroke-linejoin="round"/>
<circle cx="88.0" cy="952.8" r="5" fill="#6f5499"/>
<circle cx="177.2" cy="869.4" r="5" fill="#6f5499"/>
<circle cx="266.3" cy="768.6" r="5" fill="#6f5499"/>
<circle cx="355.5" cy="747.4" r="5" fill="#6f5499"/>
<circle cx="444.7" cy="745.5" r="5" fill="#6f5499"/>
<circle cx="533.8" cy="744.0" r="5" fill="#6f5499"/>
<circle cx="623.0" cy="958.0" r="5" fill="#6f5499"/>
<circle cx="712.2" cy="956.2" r="5" fill="#6f5499"/>
<circle cx="801.3" cy="953.8" r="5" fill="#6f5499"/>
<circle cx="890.5" cy="953.2" r="5" fill="#6f5499"/>
<circle cx="979.7" cy="951.8" r="5" fill="#6f5499"/>
<circle cx="1068.8" cy="948.4" r="5" fill="#6f5499"/>
<circle cx="1158.0" cy="945.4" r="7" fill="#6f5499"/>
<text x="1168.0" y="935.4" font-family="Helvetica, Arial, sans-serif" font-size="13" font-weight="700" fill="#6f5499">79,697</text>
<path d="M 88.0 1264.0 L 177.2 1230.9 L 266.3 1162.8 L 355.5 1054.9 L 444.7 1051.0 L 533.8 1050.0 L 623.0 1225.1 L 712.2 1259.1 L 801.3 1252.3 L 890.5 1252.3 L 979.7 1252.3 L 1068.8 1251.4 L 1158.0 1249.4" fill="none" stroke="#a6611a" stroke-width="4" stroke-linecap="round" stroke-linejoin="round"/>
<circle cx="88.0" cy="1264.0" r="5" fill="#a6611a"/>
<circle cx="177.2" cy="1230.9" r="5" fill="#a6611a"/>
<circle cx="266.3" cy="1162.8" r="5" fill="#a6611a"/>
<circle cx="355.5" cy="1054.9" r="5" fill="#a6611a"/>
<circle cx="444.7" cy="1051.0" r="5" fill="#a6611a"/>
<circle cx="533.8" cy="1050.0" r="5" fill="#a6611a"/>
<circle cx="623.0" cy="1225.1" r="5" fill="#a6611a"/>
<circle cx="712.2" cy="1259.1" r="5" fill="#a6611a"/>
<circle cx="801.3" cy="1252.3" r="5" fill="#a6611a"/>
<circle cx="890.5" cy="1252.3" r="5" fill="#a6611a"/>
<circle cx="979.7" cy="1252.3" r="5" fill="#a6611a"/>
<circle cx="1068.8" cy="1251.4" r="5" fill="#a6611a"/>
<circle cx="1158.0" cy="1249.4" r="7" fill="#a6611a"/>
<text x="1168.0" y="1239.4" font-family="Helvetica, Arial, sans-serif" font-size="13" font-weight="700" fill="#a6611a">16</text>
<path d="M 979.7 1570.0 L 1068.8 1537.3 L 1158.0 1356.0" fill="none" stroke="#2f6b3c" stroke-width="4" stroke-linecap="round" stroke-linejoin="round"/>
<circle cx="979.7" cy="1570.0" r="5" fill="#2f6b3c"/>
<circle cx="1068.8" cy="1537.3" r="5" fill="#2f6b3c"/>
<circle cx="1158.0" cy="1356.0" r="7" fill="#2f6b3c"/>
<text x="1168.0" y="1346.0" font-family="Helvetica, Arial, sans-serif" font-size="13" font-weight="700" fill="#2f6b3c">752,873</text>
<text x="88.0" y="1594" text-anchor="middle" font-family="Helvetica, Arial, sans-serif" font-size="12" fill="#70757a">06-16</text>
<text x="177.2" y="1594" text-anchor="middle" font-family="Helvetica, Arial, sans-serif" font-size="12" fill="#70757a">06-17</text>
<text x="266.3" y="1594" text-anchor="middle" font-family="Helvetica, Arial, sans-serif" font-size="12" fill="#70757a">06-18</text>
<text x="355.5" y="1594" text-anchor="middle" font-family="Helvetica, Arial, sans-serif" font-size="12" fill="#70757a">06-19</text>
<text x="444.7" y="1594" text-anchor="middle" font-family="Helvetica, Arial, sans-serif" font-size="12" fill="#70757a">06-21</text>
<text x="533.8" y="1594" text-anchor="middle" font-family="Helvetica, Arial, sans-serif" font-size="12" fill="#70757a">06-22</text>
<text x="623.0" y="1594" text-anchor="middle" font-family="Helvetica, Arial, sans-serif" font-size="12" fill="#70757a">06-23</text>
<text x="712.2" y="1594" text-anchor="middle" font-family="Helvetica, Arial, sans-serif" font-size="12" fill="#70757a">06-24</text>
<text x="801.3" y="1594" text-anchor="middle" font-family="Helvetica, Arial, sans-serif" font-size="12" fill="#70757a">06-25</text>
<text x="890.5" y="1594" text-anchor="middle" font-family="Helvetica, Arial, sans-serif" font-size="12" fill="#70757a">06-29</text>
<text x="979.7" y="1594" text-anchor="middle" font-family="Helvetica, Arial, sans-serif" font-size="12" fill="#70757a">06-30</text>
<text x="1068.8" y="1594" text-anchor="middle" font-family="Helvetica, Arial, sans-serif" font-size="12" fill="#70757a">07-01</text>
<text x="1158.0" y="1594" text-anchor="middle" font-family="Helvetica, Arial, sans-serif" font-size="12" fill="#70757a">07-02</text>
<rect x="864" y="188" width="276" height="150" rx="12" fill="#ffffff" stroke="#d8ddd2"/>
<text x="882" y="216" font-family="Helvetica, Arial, sans-serif" font-size="15" font-weight="700" fill="#202126">Latest day: 2026-07-02</text>
<text x="882" y="242" font-family="Helvetica, Arial, sans-serif" font-size="14" fill="#202126">Entities in KB: 752,873</text>
<text x="882" y="264" font-family="Helvetica, Arial, sans-serif" font-size="14" fill="#202126">Edges in KB: 15,466,149</text>
<text x="882" y="286" font-family="Helvetica, Arial, sans-serif" font-size="14" fill="#202126">Positive gain: 84,863</text>
<text x="882" y="308" font-family="Helvetica, Arial, sans-serif" font-size="14" fill="#202126">Pending queue: 79,697</text>
<line x1="60" y1="1612" x2="84" y2="1612" stroke="#1f4e79" stroke-width="4"/>
<text x="94" y="1617" font-family="Helvetica, Arial, sans-serif" font-size="13" fill="#202126">Edges in KB</text>
<line x1="280" y1="1612" x2="304" y2="1612" stroke="#6f5499" stroke-width="4"/>
<text x="314" y="1617" font-family="Helvetica, Arial, sans-serif" font-size="13" fill="#202126">Pending queue</text>
<line x1="520" y1="1612" x2="544" y2="1612" stroke="#a6611a" stroke-width="4"/>
<text x="554" y="1617" font-family="Helvetica, Arial, sans-serif" font-size="13" fill="#202126">Entities completed</text>
<line x1="800" y1="1612" x2="824" y2="1612" stroke="#2f6b3c" stroke-width="4"/>
<text x="834" y="1617" font-family="Helvetica, Arial, sans-serif" font-size="13" fill="#202126">Entities in KB (total)</text>
<rect x="60" y="1629" width="20" height="20" rx="4" fill="#2a9d8f"/>
<text x="90" y="1645" font-family="Helvetica, Arial, sans-serif" font-size="13" fill="#202126">Daily positive relationship gain</text>
<circle cx="400" cy="1639" r="5" fill="#b3472c"/>
<text x="414" y="1645" font-family="Helvetica, Arial, sans-serif" font-size="13" fill="#202126">Day includes edge-count drops/resets</text>
</svg>
